M48
; DRILL file {KiCad (6.0.7)} date Tue Aug 16 16:09:02 2022
; FORMAT={-:-/ absolute / inch / decimal}
; #@! TF.CreationDate,2022-08-16T16:09:02+09:00
; #@! TF.GenerationSoftware,Kicad,Pcbnew,(6.0.7)
; #@! TF.FileFunction,Plated,1,2,PTH
FMAT,2
INCH
; #@! TA.AperFunction,Plated,PTH,ComponentDrill
T1C0.0300
; #@! TA.AperFunction,Plated,PTH,ComponentDrill
T2C0.0394
%
G90
G05
T1
X6.05Y-3.2
X6.1Y-3.65
X6.1Y-3.95
X6.15Y-3.2
X6.65Y-3.2
X6.7Y-3.75
X6.7Y-4.05
X6.75Y-3.2
X7.15Y-3.2
X7.2Y-3.75
X7.2Y-4.05
X7.25Y-3.2
T2
X6.1152Y-4.65
X6.2152Y-4.65
X6.3152Y-4.65
X6.4152Y-4.65
X6.475Y-2.75
X6.5152Y-4.65
X6.575Y-2.75
X6.6152Y-4.65
X6.675Y-2.75
X6.7152Y-4.65
X6.775Y-2.75
X6.8152Y-4.65
X6.875Y-2.75
X6.9152Y-4.65
X6.975Y-2.75
X7.0152Y-4.65
X7.075Y-2.75
X7.175Y-2.75
X7.175Y-4.65
X7.275Y-4.65
X7.375Y-2.75
X7.375Y-4.65
X7.475Y-2.75
X7.475Y-4.65
X7.575Y-2.75
X7.575Y-4.65
X7.675Y-2.75
X7.675Y-4.65
X7.775Y-2.75
X7.775Y-4.65
X7.875Y-2.75
X7.875Y-4.65
T0
M30
