%TF.GenerationSoftware,KiCad,Pcbnew,(6.0.7)*%
%TF.CreationDate,2022-08-16T16:09:05+09:00*%
%TF.ProjectId,uno_sd,756e6f5f-7364-42e6-9b69-6361645f7063,rev?*%
%TF.SameCoordinates,Original*%
%TF.FileFunction,Copper,L2,Bot*%
%TF.FilePolarity,Positive*%
%FSLAX46Y46*%
G04 Gerber Fmt 4.6, Leading zero omitted, Abs format (unit mm)*
G04 Created by KiCad (PCBNEW (6.0.7)) date 2022-08-16 16:09:05*
%MOMM*%
%LPD*%
G01*
G04 APERTURE LIST*
%TA.AperFunction,ComponentPad*%
%ADD10C,1.524000*%
%TD*%
%TA.AperFunction,ComponentPad*%
%ADD11R,1.524000X1.524000*%
%TD*%
%TA.AperFunction,ComponentPad*%
%ADD12R,1.600000X1.600000*%
%TD*%
%TA.AperFunction,ComponentPad*%
%ADD13O,1.600000X1.600000*%
%TD*%
%TA.AperFunction,Conductor*%
%ADD14C,0.250000*%
%TD*%
G04 APERTURE END LIST*
D10*
%TO.P,R3,1*%
%TO.N,Net-(R3-Pad1)*%
X154940000Y-92710000D03*
%TO.P,R3,2*%
%TO.N,Net-(A1-Pad27)*%
X154940000Y-100330000D03*
%TD*%
%TO.P,R2,1*%
%TO.N,Net-(R2-Pad1)*%
X170180000Y-95250000D03*
%TO.P,R2,2*%
%TO.N,Net-(A1-Pad26)*%
X170180000Y-102870000D03*
%TD*%
%TO.P,R1,1*%
%TO.N,Net-(R1-Pad1)*%
X182880000Y-95250000D03*
%TO.P,R1,2*%
%TO.N,Net-(A1-Pad25)*%
X182880000Y-102870000D03*
%TD*%
D11*
%TO.P,U3,1*%
%TO.N,GND*%
X153670000Y-81280000D03*
D10*
%TO.P,U3,2*%
%TO.N,Net-(R3-Pad1)*%
X156210000Y-81280000D03*
%TD*%
D11*
%TO.P,U2,1*%
%TO.N,GND*%
X168910000Y-81280000D03*
D10*
%TO.P,U2,2*%
%TO.N,Net-(R2-Pad1)*%
X171450000Y-81280000D03*
%TD*%
D11*
%TO.P,U1,1*%
%TO.N,GND*%
X181610000Y-81280000D03*
D10*
%TO.P,U1,2*%
%TO.N,Net-(R1-Pad1)*%
X184150000Y-81280000D03*
%TD*%
D12*
%TO.P,A1,1,NC*%
%TO.N,unconnected-(A1-Pad1)*%
X164465000Y-69850000D03*
D13*
%TO.P,A1,2,IOREF*%
%TO.N,unconnected-(A1-Pad2)*%
X167005000Y-69850000D03*
%TO.P,A1,3,~{RESET}*%
%TO.N,unconnected-(A1-Pad3)*%
X169545000Y-69850000D03*
%TO.P,A1,4,3V3*%
%TO.N,unconnected-(A1-Pad4)*%
X172085000Y-69850000D03*
%TO.P,A1,5,+5V*%
%TO.N,unconnected-(A1-Pad5)*%
X174625000Y-69850000D03*
%TO.P,A1,6,GND*%
%TO.N,GND*%
X177165000Y-69850000D03*
%TO.P,A1,7,GND*%
X179705000Y-69850000D03*
%TO.P,A1,8,VIN*%
%TO.N,unconnected-(A1-Pad8)*%
X182245000Y-69850000D03*
%TO.P,A1,9,A0*%
%TO.N,unconnected-(A1-Pad9)*%
X187325000Y-69850000D03*
%TO.P,A1,10,A1*%
%TO.N,unconnected-(A1-Pad10)*%
X189865000Y-69850000D03*
%TO.P,A1,11,A2*%
%TO.N,unconnected-(A1-Pad11)*%
X192405000Y-69850000D03*
%TO.P,A1,12,A3*%
%TO.N,unconnected-(A1-Pad12)*%
X194945000Y-69850000D03*
%TO.P,A1,13,SDA/A4*%
%TO.N,unconnected-(A1-Pad13)*%
X197485000Y-69850000D03*
%TO.P,A1,14,SCL/A5*%
%TO.N,unconnected-(A1-Pad14)*%
X200025000Y-69850000D03*
%TO.P,A1,15,D0/RX*%
%TO.N,unconnected-(A1-Pad15)*%
X200025000Y-118110000D03*
%TO.P,A1,16,D1/TX*%
%TO.N,unconnected-(A1-Pad16)*%
X197485000Y-118110000D03*
%TO.P,A1,17,D2*%
%TO.N,unconnected-(A1-Pad17)*%
X194945000Y-118110000D03*
%TO.P,A1,18,D3*%
%TO.N,unconnected-(A1-Pad18)*%
X192405000Y-118110000D03*
%TO.P,A1,19,D4*%
%TO.N,unconnected-(A1-Pad19)*%
X189865000Y-118110000D03*
%TO.P,A1,20,D5*%
%TO.N,unconnected-(A1-Pad20)*%
X187325000Y-118110000D03*
%TO.P,A1,21,D6*%
%TO.N,unconnected-(A1-Pad21)*%
X184785000Y-118110000D03*
%TO.P,A1,22,D7*%
%TO.N,unconnected-(A1-Pad22)*%
X182245000Y-118110000D03*
%TO.P,A1,23,D8*%
%TO.N,unconnected-(A1-Pad23)*%
X178185000Y-118110000D03*
%TO.P,A1,24,D9*%
%TO.N,unconnected-(A1-Pad24)*%
X175645000Y-118110000D03*
%TO.P,A1,25,D10*%
%TO.N,Net-(A1-Pad25)*%
X173105000Y-118110000D03*
%TO.P,A1,26,D11*%
%TO.N,Net-(A1-Pad26)*%
X170565000Y-118110000D03*
%TO.P,A1,27,D12*%
%TO.N,Net-(A1-Pad27)*%
X168025000Y-118110000D03*
%TO.P,A1,28,D13*%
%TO.N,unconnected-(A1-Pad28)*%
X165485000Y-118110000D03*
%TO.P,A1,29,GND*%
%TO.N,GND*%
X162945000Y-118110000D03*
%TO.P,A1,30,AREF*%
%TO.N,unconnected-(A1-Pad30)*%
X160405000Y-118110000D03*
%TO.P,A1,31,SDA/A4*%
%TO.N,unconnected-(A1-Pad31)*%
X157865000Y-118110000D03*
%TO.P,A1,32,SCL/A5*%
%TO.N,unconnected-(A1-Pad32)*%
X155325000Y-118110000D03*
%TD*%
D14*
%TO.N,GND*%
X156210000Y-86360000D02*
X162560000Y-86360000D01*
X162945000Y-86745000D02*
X162945000Y-118110000D01*
X153670000Y-83820000D02*
X156210000Y-86360000D01*
X162560000Y-86360000D02*
X162945000Y-86745000D01*
X153670000Y-81280000D02*
X153670000Y-83820000D01*
X179705000Y-73025000D02*
X179705000Y-69850000D01*
X181610000Y-74930000D02*
X179705000Y-73025000D01*
X181610000Y-81280000D02*
X181610000Y-74930000D01*
X168910000Y-76200000D02*
X168910000Y-81280000D01*
X173990000Y-76200000D02*
X168910000Y-76200000D01*
X177165000Y-69850000D02*
X177165000Y-73025000D01*
X177165000Y-73025000D02*
X173990000Y-76200000D01*
%TD*%
M02*
