%TF.GenerationSoftware,KiCad,Pcbnew,(6.0.7)*%
%TF.CreationDate,2022-08-16T13:58:00+09:00*%
%TF.ProjectId,test,74657374-2e6b-4696-9361-645f70636258,rev?*%
%TF.SameCoordinates,Original*%
%TF.FileFunction,Legend,Top*%
%TF.FilePolarity,Positive*%
%FSLAX46Y46*%
G04 Gerber Fmt 4.6, Leading zero omitted, Abs format (unit mm)*
G04 Created by KiCad (PCBNEW (6.0.7)) date 2022-08-16 13:58:00*
%MOMM*%
%LPD*%
G01*
G04 APERTURE LIST*
%ADD10C,0.150000*%
%ADD11C,0.120000*%
G04 APERTURE END LIST*
D10*
%TO.C,R1*%
X136993333Y-76822380D02*
X136660000Y-76346190D01*
X136421904Y-76822380D02*
X136421904Y-75822380D01*
X136802857Y-75822380D01*
X136898095Y-75870000D01*
X136945714Y-75917619D01*
X136993333Y-76012857D01*
X136993333Y-76155714D01*
X136945714Y-76250952D01*
X136898095Y-76298571D01*
X136802857Y-76346190D01*
X136421904Y-76346190D01*
X137945714Y-76822380D02*
X137374285Y-76822380D01*
X137660000Y-76822380D02*
X137660000Y-75822380D01*
X137564761Y-75965238D01*
X137469523Y-76060476D01*
X137374285Y-76108095D01*
%TO.C,J1*%
X106912380Y-80363333D02*
X107626666Y-80363333D01*
X107769523Y-80410952D01*
X107864761Y-80506190D01*
X107912380Y-80649047D01*
X107912380Y-80744285D01*
X107912380Y-79363333D02*
X107912380Y-79934761D01*
X107912380Y-79649047D02*
X106912380Y-79649047D01*
X107055238Y-79744285D01*
X107150476Y-79839523D01*
X107198095Y-79934761D01*
%TO.C,R3*%
X136993333Y-89522380D02*
X136660000Y-89046190D01*
X136421904Y-89522380D02*
X136421904Y-88522380D01*
X136802857Y-88522380D01*
X136898095Y-88570000D01*
X136945714Y-88617619D01*
X136993333Y-88712857D01*
X136993333Y-88855714D01*
X136945714Y-88950952D01*
X136898095Y-88998571D01*
X136802857Y-89046190D01*
X136421904Y-89046190D01*
X137326666Y-88522380D02*
X137945714Y-88522380D01*
X137612380Y-88903333D01*
X137755238Y-88903333D01*
X137850476Y-88950952D01*
X137898095Y-88998571D01*
X137945714Y-89093809D01*
X137945714Y-89331904D01*
X137898095Y-89427142D01*
X137850476Y-89474761D01*
X137755238Y-89522380D01*
X137469523Y-89522380D01*
X137374285Y-89474761D01*
X137326666Y-89427142D01*
%TO.C,R2*%
X136993333Y-64122380D02*
X136660000Y-63646190D01*
X136421904Y-64122380D02*
X136421904Y-63122380D01*
X136802857Y-63122380D01*
X136898095Y-63170000D01*
X136945714Y-63217619D01*
X136993333Y-63312857D01*
X136993333Y-63455714D01*
X136945714Y-63550952D01*
X136898095Y-63598571D01*
X136802857Y-63646190D01*
X136421904Y-63646190D01*
X137374285Y-63217619D02*
X137421904Y-63170000D01*
X137517142Y-63122380D01*
X137755238Y-63122380D01*
X137850476Y-63170000D01*
X137898095Y-63217619D01*
X137945714Y-63312857D01*
X137945714Y-63408095D01*
X137898095Y-63550952D01*
X137326666Y-64122380D01*
X137945714Y-64122380D01*
%TO.C,D3*%
X152931904Y-95852380D02*
X152931904Y-94852380D01*
X153170000Y-94852380D01*
X153312857Y-94900000D01*
X153408095Y-94995238D01*
X153455714Y-95090476D01*
X153503333Y-95280952D01*
X153503333Y-95423809D01*
X153455714Y-95614285D01*
X153408095Y-95709523D01*
X153312857Y-95804761D01*
X153170000Y-95852380D01*
X152931904Y-95852380D01*
X153836666Y-94852380D02*
X154455714Y-94852380D01*
X154122380Y-95233333D01*
X154265238Y-95233333D01*
X154360476Y-95280952D01*
X154408095Y-95328571D01*
X154455714Y-95423809D01*
X154455714Y-95661904D01*
X154408095Y-95757142D01*
X154360476Y-95804761D01*
X154265238Y-95852380D01*
X153979523Y-95852380D01*
X153884285Y-95804761D01*
X153836666Y-95757142D01*
%TO.C,D2*%
X152931904Y-70452380D02*
X152931904Y-69452380D01*
X153170000Y-69452380D01*
X153312857Y-69500000D01*
X153408095Y-69595238D01*
X153455714Y-69690476D01*
X153503333Y-69880952D01*
X153503333Y-70023809D01*
X153455714Y-70214285D01*
X153408095Y-70309523D01*
X153312857Y-70404761D01*
X153170000Y-70452380D01*
X152931904Y-70452380D01*
X153884285Y-69547619D02*
X153931904Y-69500000D01*
X154027142Y-69452380D01*
X154265238Y-69452380D01*
X154360476Y-69500000D01*
X154408095Y-69547619D01*
X154455714Y-69642857D01*
X154455714Y-69738095D01*
X154408095Y-69880952D01*
X153836666Y-70452380D01*
X154455714Y-70452380D01*
%TO.C,D1*%
X152931904Y-83152380D02*
X152931904Y-82152380D01*
X153170000Y-82152380D01*
X153312857Y-82200000D01*
X153408095Y-82295238D01*
X153455714Y-82390476D01*
X153503333Y-82580952D01*
X153503333Y-82723809D01*
X153455714Y-82914285D01*
X153408095Y-83009523D01*
X153312857Y-83104761D01*
X153170000Y-83152380D01*
X152931904Y-83152380D01*
X154455714Y-83152380D02*
X153884285Y-83152380D01*
X154170000Y-83152380D02*
X154170000Y-82152380D01*
X154074761Y-82295238D01*
X153979523Y-82390476D01*
X153884285Y-82438095D01*
D11*
%TO.C,R1*%
X140430000Y-80110000D02*
X140430000Y-79780000D01*
X133890000Y-77370000D02*
X140430000Y-77370000D01*
X133890000Y-80110000D02*
X140430000Y-80110000D01*
X133890000Y-79780000D02*
X133890000Y-80110000D01*
X133890000Y-77700000D02*
X133890000Y-77370000D01*
X140430000Y-77370000D02*
X140430000Y-77700000D01*
%TO.C,J1*%
X113670000Y-77220000D02*
X112670000Y-76220000D01*
X113670000Y-83840000D02*
X113670000Y-77220000D01*
X112670000Y-76220000D02*
X108550000Y-76220000D01*
X108550000Y-76220000D02*
X108550000Y-83840000D01*
X111560000Y-84140000D02*
X113970000Y-84140000D01*
X113970000Y-84140000D02*
X113970000Y-81730000D01*
X108550000Y-83840000D02*
X113670000Y-83840000D01*
%TO.C,R3*%
X140430000Y-92810000D02*
X140430000Y-92480000D01*
X133890000Y-90070000D02*
X140430000Y-90070000D01*
X133890000Y-92810000D02*
X140430000Y-92810000D01*
X133890000Y-92480000D02*
X133890000Y-92810000D01*
X133890000Y-90400000D02*
X133890000Y-90070000D01*
X140430000Y-90070000D02*
X140430000Y-90400000D01*
%TO.C,R2*%
X140430000Y-64670000D02*
X140430000Y-65000000D01*
X133890000Y-65000000D02*
X133890000Y-64670000D01*
X133890000Y-67080000D02*
X133890000Y-67410000D01*
X133890000Y-67410000D02*
X140430000Y-67410000D01*
X133890000Y-64670000D02*
X140430000Y-64670000D01*
X140430000Y-67410000D02*
X140430000Y-67080000D01*
%TO.C,D3*%
X156230000Y-92985000D02*
X156230000Y-89895000D01*
X156230000Y-89895170D02*
G75*
G03*
X150680000Y-91440462I-2560000J-1544830D01*
G01*
X150680000Y-91439538D02*
G75*
G03*
X156230000Y-92984830I2990000J-462D01*
G01*
X156170000Y-91440000D02*
G75*
G03*
X156170000Y-91440000I-2500000J0D01*
G01*
%TO.C,D2*%
X156230000Y-67585000D02*
X156230000Y-64495000D01*
X156230000Y-64495170D02*
G75*
G03*
X150680000Y-66040462I-2560000J-1544830D01*
G01*
X150680000Y-66039538D02*
G75*
G03*
X156230000Y-67584830I2990000J-462D01*
G01*
X156170000Y-66040000D02*
G75*
G03*
X156170000Y-66040000I-2500000J0D01*
G01*
%TO.C,D1*%
X156230000Y-80285000D02*
X156230000Y-77195000D01*
X156230000Y-77195170D02*
G75*
G03*
X150680000Y-78740462I-2560000J-1544830D01*
G01*
X150680000Y-78739538D02*
G75*
G03*
X156230000Y-80284830I2990000J-462D01*
G01*
X156170000Y-78740000D02*
G75*
G03*
X156170000Y-78740000I-2500000J0D01*
G01*
%TD*%
M02*
