%TF.GenerationSoftware,KiCad,Pcbnew,(6.0.7)*%
%TF.CreationDate,2022-08-16T13:58:00+09:00*%
%TF.ProjectId,test,74657374-2e6b-4696-9361-645f70636258,rev?*%
%TF.SameCoordinates,Original*%
%TF.FileFunction,Copper,L2,Bot*%
%TF.FilePolarity,Positive*%
%FSLAX46Y46*%
G04 Gerber Fmt 4.6, Leading zero omitted, Abs format (unit mm)*
G04 Created by KiCad (PCBNEW (6.0.7)) date 2022-08-16 13:58:00*
%MOMM*%
%LPD*%
G01*
G04 APERTURE LIST*
G04 Aperture macros list*
%AMRoundRect*
0 Rectangle with rounded corners*
0 $1 Rounding radius*
0 $2 $3 $4 $5 $6 $7 $8 $9 X,Y pos of 4 corners*
0 Add a 4 corners polygon primitive as box body*
4,1,4,$2,$3,$4,$5,$6,$7,$8,$9,$2,$3,0*
0 Add four circle primitives for the rounded corners*
1,1,$1+$1,$2,$3*
1,1,$1+$1,$4,$5*
1,1,$1+$1,$6,$7*
1,1,$1+$1,$8,$9*
0 Add four rect primitives between the rounded corners*
20,1,$1+$1,$2,$3,$4,$5,0*
20,1,$1+$1,$4,$5,$6,$7,0*
20,1,$1+$1,$6,$7,$8,$9,0*
20,1,$1+$1,$8,$9,$2,$3,0*%
G04 Aperture macros list end*
%TA.AperFunction,ComponentPad*%
%ADD10C,1.600000*%
%TD*%
%TA.AperFunction,ComponentPad*%
%ADD11O,1.600000X1.600000*%
%TD*%
%TA.AperFunction,ComponentPad*%
%ADD12RoundRect,0.250000X0.675000X-0.600000X0.675000X0.600000X-0.675000X0.600000X-0.675000X-0.600000X0*%
%TD*%
%TA.AperFunction,ComponentPad*%
%ADD13O,1.850000X1.700000*%
%TD*%
%TA.AperFunction,ComponentPad*%
%ADD14R,1.800000X1.800000*%
%TD*%
%TA.AperFunction,ComponentPad*%
%ADD15C,1.800000*%
%TD*%
%TA.AperFunction,Conductor*%
%ADD16C,0.250000*%
%TD*%
G04 APERTURE END LIST*
D10*
%TO.P,R1,1*%
%TO.N,+5V*%
X133350000Y-78740000D03*
D11*
%TO.P,R1,2*%
%TO.N,Net-(D1-Pad2)*%
X140970000Y-78740000D03*
%TD*%
D12*
%TO.P,J1,1,Pin_1*%
%TO.N,+5V*%
X111760000Y-81280000D03*
D13*
%TO.P,J1,2,Pin_2*%
%TO.N,GND*%
X111760000Y-78780000D03*
%TD*%
D10*
%TO.P,R3,1*%
%TO.N,+5V*%
X133350000Y-91440000D03*
D11*
%TO.P,R3,2*%
%TO.N,Net-(D3-Pad2)*%
X140970000Y-91440000D03*
%TD*%
%TO.P,R2,2*%
%TO.N,Net-(D2-Pad2)*%
X140970000Y-66040000D03*
D10*
%TO.P,R2,1*%
%TO.N,+5V*%
X133350000Y-66040000D03*
%TD*%
D14*
%TO.P,D3,1,K*%
%TO.N,GND*%
X154940000Y-91440000D03*
D15*
%TO.P,D3,2,A*%
%TO.N,Net-(D3-Pad2)*%
X152400000Y-91440000D03*
%TD*%
D14*
%TO.P,D2,1,K*%
%TO.N,GND*%
X154940000Y-66040000D03*
D15*
%TO.P,D2,2,A*%
%TO.N,Net-(D2-Pad2)*%
X152400000Y-66040000D03*
%TD*%
D14*
%TO.P,D1,1,K*%
%TO.N,GND*%
X154940000Y-78740000D03*
D15*
%TO.P,D1,2,A*%
%TO.N,Net-(D1-Pad2)*%
X152400000Y-78740000D03*
%TD*%
D16*
%TO.N,+5V*%
X133350000Y-78740000D02*
X133350000Y-91440000D01*
X133350000Y-66040000D02*
X133350000Y-78740000D01*
%TD*%
%TA.AperFunction,Conductor*%
%TO.N,GND*%
G36*
X176942121Y-54020002D02*
G01*
X176988614Y-54073658D01*
X177000000Y-54126000D01*
X177000000Y-108585500D01*
X176979998Y-108653621D01*
X176926342Y-108700114D01*
X176874000Y-108711500D01*
X107314500Y-108711500D01*
X107246379Y-108691498D01*
X107199886Y-108637842D01*
X107188500Y-108585500D01*
X107188500Y-94049721D01*
X151891024Y-94049721D01*
X151931051Y-94189771D01*
X152008776Y-94312958D01*
X152117951Y-94409378D01*
X152126074Y-94413192D01*
X152126076Y-94413193D01*
X152133137Y-94416508D01*
X152249800Y-94471281D01*
X152258665Y-94472661D01*
X152258667Y-94472662D01*
X152327746Y-94483418D01*
X152360386Y-94488500D01*
X152436513Y-94488500D01*
X152478839Y-94482438D01*
X152535294Y-94474354D01*
X152535297Y-94474353D01*
X152544187Y-94473080D01*
X152552363Y-94469363D01*
X152552365Y-94469362D01*
X152668610Y-94416508D01*
X152668612Y-94416507D01*
X152676782Y-94412792D01*
X152787127Y-94317713D01*
X152866352Y-94195485D01*
X152908086Y-94055934D01*
X152908976Y-93910279D01*
X152868949Y-93770229D01*
X152791224Y-93647042D01*
X152682049Y-93550622D01*
X152673926Y-93546808D01*
X152673924Y-93546807D01*
X152610013Y-93516801D01*
X152550200Y-93488719D01*
X152541335Y-93487339D01*
X152541333Y-93487338D01*
X152472254Y-93476582D01*
X152439614Y-93471500D01*
X152363487Y-93471500D01*
X152321161Y-93477562D01*
X152264706Y-93485646D01*
X152264703Y-93485647D01*
X152255813Y-93486920D01*
X152247637Y-93490637D01*
X152247635Y-93490638D01*
X152131390Y-93543492D01*
X152131388Y-93543493D01*
X152123218Y-93547208D01*
X152012873Y-93642287D01*
X151933648Y-93764515D01*
X151891914Y-93904066D01*
X151891024Y-94049721D01*
X107188500Y-94049721D01*
X107188500Y-91440000D01*
X132036502Y-91440000D01*
X132056457Y-91668087D01*
X132057881Y-91673400D01*
X132057881Y-91673402D01*
X132109871Y-91867428D01*
X132115716Y-91889243D01*
X132118039Y-91894224D01*
X132118039Y-91894225D01*
X132210151Y-92091762D01*
X132210154Y-92091767D01*
X132212477Y-92096749D01*
X132215634Y-92101257D01*
X132334012Y-92270318D01*
X132343802Y-92284300D01*
X132505700Y-92446198D01*
X132510208Y-92449355D01*
X132510211Y-92449357D01*
X132510821Y-92449784D01*
X132693251Y-92577523D01*
X132698233Y-92579846D01*
X132698238Y-92579849D01*
X132857238Y-92653991D01*
X132900757Y-92674284D01*
X132906065Y-92675706D01*
X132906067Y-92675707D01*
X133116598Y-92732119D01*
X133116600Y-92732119D01*
X133121913Y-92733543D01*
X133350000Y-92753498D01*
X133578087Y-92733543D01*
X133583400Y-92732119D01*
X133583402Y-92732119D01*
X133793933Y-92675707D01*
X133793935Y-92675706D01*
X133799243Y-92674284D01*
X133842762Y-92653991D01*
X134001762Y-92579849D01*
X134001767Y-92579846D01*
X134006749Y-92577523D01*
X134189179Y-92449784D01*
X134189789Y-92449357D01*
X134189792Y-92449355D01*
X134194300Y-92446198D01*
X134356198Y-92284300D01*
X134365989Y-92270318D01*
X134484366Y-92101257D01*
X134487523Y-92096749D01*
X134489846Y-92091767D01*
X134489849Y-92091762D01*
X134581961Y-91894225D01*
X134581961Y-91894224D01*
X134584284Y-91889243D01*
X134590130Y-91867428D01*
X134642119Y-91673402D01*
X134642119Y-91673400D01*
X134643543Y-91668087D01*
X134663498Y-91440000D01*
X139656502Y-91440000D01*
X139676457Y-91668087D01*
X139677881Y-91673400D01*
X139677881Y-91673402D01*
X139729871Y-91867428D01*
X139735716Y-91889243D01*
X139738039Y-91894224D01*
X139738039Y-91894225D01*
X139830151Y-92091762D01*
X139830154Y-92091767D01*
X139832477Y-92096749D01*
X139835634Y-92101257D01*
X139954012Y-92270318D01*
X139963802Y-92284300D01*
X140125700Y-92446198D01*
X140130208Y-92449355D01*
X140130211Y-92449357D01*
X140130821Y-92449784D01*
X140313251Y-92577523D01*
X140318233Y-92579846D01*
X140318238Y-92579849D01*
X140477238Y-92653991D01*
X140520757Y-92674284D01*
X140526065Y-92675706D01*
X140526067Y-92675707D01*
X140736598Y-92732119D01*
X140736600Y-92732119D01*
X140741913Y-92733543D01*
X140970000Y-92753498D01*
X141198087Y-92733543D01*
X141203400Y-92732119D01*
X141203402Y-92732119D01*
X141413933Y-92675707D01*
X141413935Y-92675706D01*
X141419243Y-92674284D01*
X141462762Y-92653991D01*
X141621762Y-92579849D01*
X141621767Y-92579846D01*
X141626749Y-92577523D01*
X141809179Y-92449784D01*
X141809789Y-92449357D01*
X141809792Y-92449355D01*
X141814300Y-92446198D01*
X141976198Y-92284300D01*
X141985989Y-92270318D01*
X142104366Y-92101257D01*
X142107523Y-92096749D01*
X142109846Y-92091767D01*
X142109849Y-92091762D01*
X142201961Y-91894225D01*
X142201961Y-91894224D01*
X142204284Y-91889243D01*
X142210130Y-91867428D01*
X142262119Y-91673402D01*
X142262119Y-91673400D01*
X142263543Y-91668087D01*
X142283498Y-91440000D01*
X142280477Y-91405469D01*
X150987095Y-91405469D01*
X150987392Y-91410622D01*
X150987392Y-91410625D01*
X150993067Y-91509041D01*
X151000427Y-91636697D01*
X151001564Y-91641743D01*
X151001565Y-91641749D01*
X151016394Y-91707548D01*
X151051346Y-91862642D01*
X151053288Y-91867424D01*
X151053289Y-91867428D01*
X151136540Y-92072450D01*
X151138484Y-92077237D01*
X151259501Y-92274719D01*
X151411147Y-92449784D01*
X151589349Y-92597730D01*
X151789322Y-92714584D01*
X152005694Y-92797209D01*
X152010760Y-92798240D01*
X152010761Y-92798240D01*
X152063846Y-92809040D01*
X152232656Y-92843385D01*
X152363324Y-92848176D01*
X152458949Y-92851683D01*
X152458953Y-92851683D01*
X152464113Y-92851872D01*
X152469233Y-92851216D01*
X152469235Y-92851216D01*
X152568668Y-92838478D01*
X152693847Y-92822442D01*
X152698795Y-92820957D01*
X152698802Y-92820956D01*
X152910747Y-92757369D01*
X152915690Y-92755886D01*
X152920565Y-92753498D01*
X153119049Y-92656262D01*
X153119052Y-92656260D01*
X153123684Y-92653991D01*
X153312243Y-92519494D01*
X153315898Y-92515852D01*
X153315906Y-92515845D01*
X153357697Y-92474199D01*
X153420068Y-92440282D01*
X153490875Y-92445470D01*
X153547637Y-92488116D01*
X153564619Y-92519218D01*
X153586677Y-92578056D01*
X153595214Y-92593649D01*
X153671715Y-92695724D01*
X153684276Y-92708285D01*
X153786351Y-92784786D01*
X153801946Y-92793324D01*
X153922394Y-92838478D01*
X153937649Y-92842105D01*
X153988514Y-92847631D01*
X153995328Y-92848000D01*
X154667885Y-92848000D01*
X154683124Y-92843525D01*
X154684329Y-92842135D01*
X154686000Y-92834452D01*
X154686000Y-92829884D01*
X155194000Y-92829884D01*
X155198475Y-92845123D01*
X155199865Y-92846328D01*
X155207548Y-92847999D01*
X155884669Y-92847999D01*
X155891490Y-92847629D01*
X155942352Y-92842105D01*
X155957604Y-92838479D01*
X156078054Y-92793324D01*
X156093649Y-92784786D01*
X156195724Y-92708285D01*
X156208285Y-92695724D01*
X156284786Y-92593649D01*
X156293324Y-92578054D01*
X156338478Y-92457606D01*
X156342105Y-92442351D01*
X156347631Y-92391486D01*
X156348000Y-92384672D01*
X156348000Y-91712115D01*
X156343525Y-91696876D01*
X156342135Y-91695671D01*
X156334452Y-91694000D01*
X155212115Y-91694000D01*
X155196876Y-91698475D01*
X155195671Y-91699865D01*
X155194000Y-91707548D01*
X155194000Y-92829884D01*
X154686000Y-92829884D01*
X154686000Y-91167885D01*
X155194000Y-91167885D01*
X155198475Y-91183124D01*
X155199865Y-91184329D01*
X155207548Y-91186000D01*
X156329884Y-91186000D01*
X156345123Y-91181525D01*
X156346328Y-91180135D01*
X156347999Y-91172452D01*
X156347999Y-90495331D01*
X156347629Y-90488510D01*
X156342105Y-90437648D01*
X156338479Y-90422396D01*
X156293324Y-90301946D01*
X156284786Y-90286351D01*
X156208285Y-90184276D01*
X156195724Y-90171715D01*
X156093649Y-90095214D01*
X156078054Y-90086676D01*
X155957606Y-90041522D01*
X155942351Y-90037895D01*
X155891486Y-90032369D01*
X155884672Y-90032000D01*
X155212115Y-90032000D01*
X155196876Y-90036475D01*
X155195671Y-90037865D01*
X155194000Y-90045548D01*
X155194000Y-91167885D01*
X154686000Y-91167885D01*
X154686000Y-90050116D01*
X154681525Y-90034877D01*
X154680135Y-90033672D01*
X154672452Y-90032001D01*
X153995331Y-90032001D01*
X153988510Y-90032371D01*
X153937648Y-90037895D01*
X153922396Y-90041521D01*
X153801946Y-90086676D01*
X153786351Y-90095214D01*
X153684276Y-90171715D01*
X153671715Y-90184276D01*
X153595214Y-90286351D01*
X153586675Y-90301948D01*
X153565934Y-90357275D01*
X153523293Y-90414040D01*
X153456731Y-90438740D01*
X153387383Y-90423533D01*
X153364388Y-90406909D01*
X153363887Y-90406358D01*
X153301737Y-90357275D01*
X153186177Y-90266011D01*
X153186172Y-90266008D01*
X153182123Y-90262810D01*
X153177607Y-90260317D01*
X153177604Y-90260315D01*
X152983879Y-90153373D01*
X152983875Y-90153371D01*
X152979355Y-90150876D01*
X152974486Y-90149152D01*
X152974482Y-90149150D01*
X152765903Y-90075288D01*
X152765899Y-90075287D01*
X152761028Y-90073562D01*
X152755935Y-90072655D01*
X152755932Y-90072654D01*
X152538095Y-90033851D01*
X152538089Y-90033850D01*
X152533006Y-90032945D01*
X152455644Y-90032000D01*
X152306581Y-90030179D01*
X152306579Y-90030179D01*
X152301411Y-90030116D01*
X152072464Y-90065150D01*
X151852314Y-90137106D01*
X151847726Y-90139494D01*
X151847722Y-90139496D01*
X151691911Y-90220606D01*
X151646872Y-90244052D01*
X151642739Y-90247155D01*
X151642736Y-90247157D01*
X151540632Y-90323819D01*
X151461655Y-90383117D01*
X151301639Y-90550564D01*
X151171119Y-90741899D01*
X151073602Y-90951981D01*
X151011707Y-91175169D01*
X150987095Y-91405469D01*
X142280477Y-91405469D01*
X142263543Y-91211913D01*
X142255028Y-91180135D01*
X142205707Y-90996067D01*
X142205706Y-90996065D01*
X142204284Y-90990757D01*
X142184020Y-90947301D01*
X142109849Y-90788238D01*
X142109846Y-90788233D01*
X142107523Y-90783251D01*
X141976198Y-90595700D01*
X141814300Y-90433802D01*
X141809792Y-90430645D01*
X141809789Y-90430643D01*
X141657228Y-90323819D01*
X141626749Y-90302477D01*
X141621767Y-90300154D01*
X141621762Y-90300151D01*
X141424225Y-90208039D01*
X141424224Y-90208039D01*
X141419243Y-90205716D01*
X141413935Y-90204294D01*
X141413933Y-90204293D01*
X141203402Y-90147881D01*
X141203400Y-90147881D01*
X141198087Y-90146457D01*
X140970000Y-90126502D01*
X140741913Y-90146457D01*
X140736600Y-90147881D01*
X140736598Y-90147881D01*
X140526067Y-90204293D01*
X140526065Y-90204294D01*
X140520757Y-90205716D01*
X140515776Y-90208039D01*
X140515775Y-90208039D01*
X140318238Y-90300151D01*
X140318233Y-90300154D01*
X140313251Y-90302477D01*
X140282772Y-90323819D01*
X140130211Y-90430643D01*
X140130208Y-90430645D01*
X140125700Y-90433802D01*
X139963802Y-90595700D01*
X139832477Y-90783251D01*
X139830154Y-90788233D01*
X139830151Y-90788238D01*
X139755980Y-90947301D01*
X139735716Y-90990757D01*
X139734294Y-90996065D01*
X139734293Y-90996067D01*
X139684972Y-91180135D01*
X139676457Y-91211913D01*
X139656502Y-91440000D01*
X134663498Y-91440000D01*
X134643543Y-91211913D01*
X134635028Y-91180135D01*
X134585707Y-90996067D01*
X134585706Y-90996065D01*
X134584284Y-90990757D01*
X134564020Y-90947301D01*
X134489849Y-90788238D01*
X134489846Y-90788233D01*
X134487523Y-90783251D01*
X134356198Y-90595700D01*
X134194300Y-90433802D01*
X134189792Y-90430645D01*
X134189789Y-90430643D01*
X134037229Y-90323819D01*
X133992901Y-90268362D01*
X133983500Y-90220606D01*
X133983500Y-79959394D01*
X134003502Y-79891273D01*
X134037229Y-79856181D01*
X134189789Y-79749357D01*
X134189792Y-79749355D01*
X134194300Y-79746198D01*
X134356198Y-79584300D01*
X134365989Y-79570318D01*
X134484366Y-79401257D01*
X134487523Y-79396749D01*
X134489846Y-79391767D01*
X134489849Y-79391762D01*
X134581961Y-79194225D01*
X134581961Y-79194224D01*
X134584284Y-79189243D01*
X134590130Y-79167428D01*
X134642119Y-78973402D01*
X134642119Y-78973400D01*
X134643543Y-78968087D01*
X134663498Y-78740000D01*
X139656502Y-78740000D01*
X139676457Y-78968087D01*
X139677881Y-78973400D01*
X139677881Y-78973402D01*
X139729871Y-79167428D01*
X139735716Y-79189243D01*
X139738039Y-79194224D01*
X139738039Y-79194225D01*
X139830151Y-79391762D01*
X139830154Y-79391767D01*
X139832477Y-79396749D01*
X139835634Y-79401257D01*
X139954012Y-79570318D01*
X139963802Y-79584300D01*
X140125700Y-79746198D01*
X140130208Y-79749355D01*
X140130211Y-79749357D01*
X140130821Y-79749784D01*
X140313251Y-79877523D01*
X140318233Y-79879846D01*
X140318238Y-79879849D01*
X140477238Y-79953991D01*
X140520757Y-79974284D01*
X140526065Y-79975706D01*
X140526067Y-79975707D01*
X140736598Y-80032119D01*
X140736600Y-80032119D01*
X140741913Y-80033543D01*
X140970000Y-80053498D01*
X141198087Y-80033543D01*
X141203400Y-80032119D01*
X141203402Y-80032119D01*
X141413933Y-79975707D01*
X141413935Y-79975706D01*
X141419243Y-79974284D01*
X141462762Y-79953991D01*
X141621762Y-79879849D01*
X141621767Y-79879846D01*
X141626749Y-79877523D01*
X141809179Y-79749784D01*
X141809789Y-79749357D01*
X141809792Y-79749355D01*
X141814300Y-79746198D01*
X141976198Y-79584300D01*
X141985989Y-79570318D01*
X142104366Y-79401257D01*
X142107523Y-79396749D01*
X142109846Y-79391767D01*
X142109849Y-79391762D01*
X142201961Y-79194225D01*
X142201961Y-79194224D01*
X142204284Y-79189243D01*
X142210130Y-79167428D01*
X142262119Y-78973402D01*
X142262119Y-78973400D01*
X142263543Y-78968087D01*
X142283498Y-78740000D01*
X142280477Y-78705469D01*
X150987095Y-78705469D01*
X150987392Y-78710622D01*
X150987392Y-78710625D01*
X150993067Y-78809041D01*
X151000427Y-78936697D01*
X151001564Y-78941743D01*
X151001565Y-78941749D01*
X151023408Y-79038671D01*
X151051346Y-79162642D01*
X151053288Y-79167424D01*
X151053289Y-79167428D01*
X151136540Y-79372450D01*
X151138484Y-79377237D01*
X151259501Y-79574719D01*
X151411147Y-79749784D01*
X151589349Y-79897730D01*
X151789322Y-80014584D01*
X152005694Y-80097209D01*
X152010760Y-80098240D01*
X152010761Y-80098240D01*
X152063846Y-80109040D01*
X152232656Y-80143385D01*
X152363324Y-80148176D01*
X152458949Y-80151683D01*
X152458953Y-80151683D01*
X152464113Y-80151872D01*
X152469233Y-80151216D01*
X152469235Y-80151216D01*
X152568668Y-80138478D01*
X152693847Y-80122442D01*
X152698795Y-80120957D01*
X152698802Y-80120956D01*
X152910747Y-80057369D01*
X152915690Y-80055886D01*
X152920565Y-80053498D01*
X153119049Y-79956262D01*
X153119052Y-79956260D01*
X153123684Y-79953991D01*
X153312243Y-79819494D01*
X153315898Y-79815852D01*
X153315906Y-79815845D01*
X153357697Y-79774199D01*
X153420068Y-79740282D01*
X153490875Y-79745470D01*
X153547637Y-79788116D01*
X153564619Y-79819218D01*
X153586677Y-79878056D01*
X153595214Y-79893649D01*
X153671715Y-79995724D01*
X153684276Y-80008285D01*
X153786351Y-80084786D01*
X153801946Y-80093324D01*
X153922394Y-80138478D01*
X153937649Y-80142105D01*
X153988514Y-80147631D01*
X153995328Y-80148000D01*
X154667885Y-80148000D01*
X154683124Y-80143525D01*
X154684329Y-80142135D01*
X154686000Y-80134452D01*
X154686000Y-80129884D01*
X155194000Y-80129884D01*
X155198475Y-80145123D01*
X155199865Y-80146328D01*
X155207548Y-80147999D01*
X155884669Y-80147999D01*
X155891490Y-80147629D01*
X155942352Y-80142105D01*
X155957604Y-80138479D01*
X156078054Y-80093324D01*
X156093649Y-80084786D01*
X156195724Y-80008285D01*
X156208285Y-79995724D01*
X156284786Y-79893649D01*
X156293324Y-79878054D01*
X156338478Y-79757606D01*
X156342105Y-79742351D01*
X156347631Y-79691486D01*
X156348000Y-79684672D01*
X156348000Y-79012115D01*
X156343525Y-78996876D01*
X156342135Y-78995671D01*
X156334452Y-78994000D01*
X155212115Y-78994000D01*
X155196876Y-78998475D01*
X155195671Y-78999865D01*
X155194000Y-79007548D01*
X155194000Y-80129884D01*
X154686000Y-80129884D01*
X154686000Y-78467885D01*
X155194000Y-78467885D01*
X155198475Y-78483124D01*
X155199865Y-78484329D01*
X155207548Y-78486000D01*
X156329884Y-78486000D01*
X156345123Y-78481525D01*
X156346328Y-78480135D01*
X156347999Y-78472452D01*
X156347999Y-77795331D01*
X156347629Y-77788510D01*
X156342105Y-77737648D01*
X156338479Y-77722396D01*
X156293324Y-77601946D01*
X156284786Y-77586351D01*
X156208285Y-77484276D01*
X156195724Y-77471715D01*
X156093649Y-77395214D01*
X156078054Y-77386676D01*
X155957606Y-77341522D01*
X155942351Y-77337895D01*
X155891486Y-77332369D01*
X155884672Y-77332000D01*
X155212115Y-77332000D01*
X155196876Y-77336475D01*
X155195671Y-77337865D01*
X155194000Y-77345548D01*
X155194000Y-78467885D01*
X154686000Y-78467885D01*
X154686000Y-77350116D01*
X154681525Y-77334877D01*
X154680135Y-77333672D01*
X154672452Y-77332001D01*
X153995331Y-77332001D01*
X153988510Y-77332371D01*
X153937648Y-77337895D01*
X153922396Y-77341521D01*
X153801946Y-77386676D01*
X153786351Y-77395214D01*
X153684276Y-77471715D01*
X153671715Y-77484276D01*
X153595214Y-77586351D01*
X153586675Y-77601948D01*
X153565934Y-77657275D01*
X153523293Y-77714040D01*
X153456731Y-77738740D01*
X153387383Y-77723533D01*
X153364388Y-77706909D01*
X153363887Y-77706358D01*
X153297780Y-77654150D01*
X153186177Y-77566011D01*
X153186172Y-77566008D01*
X153182123Y-77562810D01*
X153177607Y-77560317D01*
X153177604Y-77560315D01*
X152983879Y-77453373D01*
X152983875Y-77453371D01*
X152979355Y-77450876D01*
X152974486Y-77449152D01*
X152974482Y-77449150D01*
X152765903Y-77375288D01*
X152765899Y-77375287D01*
X152761028Y-77373562D01*
X152755935Y-77372655D01*
X152755932Y-77372654D01*
X152538095Y-77333851D01*
X152538089Y-77333850D01*
X152533006Y-77332945D01*
X152455644Y-77332000D01*
X152306581Y-77330179D01*
X152306579Y-77330179D01*
X152301411Y-77330116D01*
X152072464Y-77365150D01*
X151852314Y-77437106D01*
X151847726Y-77439494D01*
X151847722Y-77439496D01*
X151651461Y-77541663D01*
X151646872Y-77544052D01*
X151642739Y-77547155D01*
X151642736Y-77547157D01*
X151540632Y-77623819D01*
X151461655Y-77683117D01*
X151301639Y-77850564D01*
X151171119Y-78041899D01*
X151073602Y-78251981D01*
X151011707Y-78475169D01*
X150987095Y-78705469D01*
X142280477Y-78705469D01*
X142263543Y-78511913D01*
X142262119Y-78506598D01*
X142205707Y-78296067D01*
X142205706Y-78296065D01*
X142204284Y-78290757D01*
X142147713Y-78169439D01*
X142109849Y-78088238D01*
X142109846Y-78088233D01*
X142107523Y-78083251D01*
X141976198Y-77895700D01*
X141814300Y-77733802D01*
X141809792Y-77730645D01*
X141809789Y-77730643D01*
X141731611Y-77675902D01*
X141626749Y-77602477D01*
X141621767Y-77600154D01*
X141621762Y-77600151D01*
X141424225Y-77508039D01*
X141424224Y-77508039D01*
X141419243Y-77505716D01*
X141413935Y-77504294D01*
X141413933Y-77504293D01*
X141203402Y-77447881D01*
X141203400Y-77447881D01*
X141198087Y-77446457D01*
X140970000Y-77426502D01*
X140741913Y-77446457D01*
X140736600Y-77447881D01*
X140736598Y-77447881D01*
X140526067Y-77504293D01*
X140526065Y-77504294D01*
X140520757Y-77505716D01*
X140515776Y-77508039D01*
X140515775Y-77508039D01*
X140318238Y-77600151D01*
X140318233Y-77600154D01*
X140313251Y-77602477D01*
X140208389Y-77675902D01*
X140130211Y-77730643D01*
X140130208Y-77730645D01*
X140125700Y-77733802D01*
X139963802Y-77895700D01*
X139832477Y-78083251D01*
X139830154Y-78088233D01*
X139830151Y-78088238D01*
X139792287Y-78169439D01*
X139735716Y-78290757D01*
X139734294Y-78296065D01*
X139734293Y-78296067D01*
X139677881Y-78506598D01*
X139676457Y-78511913D01*
X139656502Y-78740000D01*
X134663498Y-78740000D01*
X134643543Y-78511913D01*
X134642119Y-78506598D01*
X134585707Y-78296067D01*
X134585706Y-78296065D01*
X134584284Y-78290757D01*
X134527713Y-78169439D01*
X134489849Y-78088238D01*
X134489846Y-78088233D01*
X134487523Y-78083251D01*
X134356198Y-77895700D01*
X134194300Y-77733802D01*
X134189792Y-77730645D01*
X134189789Y-77730643D01*
X134037229Y-77623819D01*
X133992901Y-77568362D01*
X133983500Y-77520606D01*
X133983500Y-67259394D01*
X134003502Y-67191273D01*
X134037229Y-67156181D01*
X134189789Y-67049357D01*
X134189792Y-67049355D01*
X134194300Y-67046198D01*
X134356198Y-66884300D01*
X134365989Y-66870318D01*
X134484366Y-66701257D01*
X134487523Y-66696749D01*
X134489846Y-66691767D01*
X134489849Y-66691762D01*
X134581961Y-66494225D01*
X134581961Y-66494224D01*
X134584284Y-66489243D01*
X134590130Y-66467428D01*
X134642119Y-66273402D01*
X134642119Y-66273400D01*
X134643543Y-66268087D01*
X134663498Y-66040000D01*
X139656502Y-66040000D01*
X139676457Y-66268087D01*
X139677881Y-66273400D01*
X139677881Y-66273402D01*
X139729871Y-66467428D01*
X139735716Y-66489243D01*
X139738039Y-66494224D01*
X139738039Y-66494225D01*
X139830151Y-66691762D01*
X139830154Y-66691767D01*
X139832477Y-66696749D01*
X139835634Y-66701257D01*
X139954012Y-66870318D01*
X139963802Y-66884300D01*
X140125700Y-67046198D01*
X140130208Y-67049355D01*
X140130211Y-67049357D01*
X140130821Y-67049784D01*
X140313251Y-67177523D01*
X140318233Y-67179846D01*
X140318238Y-67179849D01*
X140477238Y-67253991D01*
X140520757Y-67274284D01*
X140526065Y-67275706D01*
X140526067Y-67275707D01*
X140736598Y-67332119D01*
X140736600Y-67332119D01*
X140741913Y-67333543D01*
X140970000Y-67353498D01*
X141198087Y-67333543D01*
X141203400Y-67332119D01*
X141203402Y-67332119D01*
X141413933Y-67275707D01*
X141413935Y-67275706D01*
X141419243Y-67274284D01*
X141462762Y-67253991D01*
X141621762Y-67179849D01*
X141621767Y-67179846D01*
X141626749Y-67177523D01*
X141809179Y-67049784D01*
X141809789Y-67049357D01*
X141809792Y-67049355D01*
X141814300Y-67046198D01*
X141976198Y-66884300D01*
X141985989Y-66870318D01*
X142104366Y-66701257D01*
X142107523Y-66696749D01*
X142109846Y-66691767D01*
X142109849Y-66691762D01*
X142201961Y-66494225D01*
X142201961Y-66494224D01*
X142204284Y-66489243D01*
X142210130Y-66467428D01*
X142262119Y-66273402D01*
X142262119Y-66273400D01*
X142263543Y-66268087D01*
X142283498Y-66040000D01*
X142280477Y-66005469D01*
X150987095Y-66005469D01*
X150987392Y-66010622D01*
X150987392Y-66010625D01*
X150993067Y-66109041D01*
X151000427Y-66236697D01*
X151001564Y-66241743D01*
X151001565Y-66241749D01*
X151016394Y-66307548D01*
X151051346Y-66462642D01*
X151053288Y-66467424D01*
X151053289Y-66467428D01*
X151136540Y-66672450D01*
X151138484Y-66677237D01*
X151259501Y-66874719D01*
X151411147Y-67049784D01*
X151589349Y-67197730D01*
X151789322Y-67314584D01*
X152005694Y-67397209D01*
X152010760Y-67398240D01*
X152010761Y-67398240D01*
X152063846Y-67409040D01*
X152232656Y-67443385D01*
X152363324Y-67448176D01*
X152458949Y-67451683D01*
X152458953Y-67451683D01*
X152464113Y-67451872D01*
X152469233Y-67451216D01*
X152469235Y-67451216D01*
X152568668Y-67438478D01*
X152693847Y-67422442D01*
X152698795Y-67420957D01*
X152698802Y-67420956D01*
X152910747Y-67357369D01*
X152915690Y-67355886D01*
X152920565Y-67353498D01*
X153119049Y-67256262D01*
X153119052Y-67256260D01*
X153123684Y-67253991D01*
X153312243Y-67119494D01*
X153315898Y-67115852D01*
X153315906Y-67115845D01*
X153357697Y-67074199D01*
X153420068Y-67040282D01*
X153490875Y-67045470D01*
X153547637Y-67088116D01*
X153564619Y-67119218D01*
X153586677Y-67178056D01*
X153595214Y-67193649D01*
X153671715Y-67295724D01*
X153684276Y-67308285D01*
X153786351Y-67384786D01*
X153801946Y-67393324D01*
X153922394Y-67438478D01*
X153937649Y-67442105D01*
X153988514Y-67447631D01*
X153995328Y-67448000D01*
X154667885Y-67448000D01*
X154683124Y-67443525D01*
X154684329Y-67442135D01*
X154686000Y-67434452D01*
X154686000Y-67429884D01*
X155194000Y-67429884D01*
X155198475Y-67445123D01*
X155199865Y-67446328D01*
X155207548Y-67447999D01*
X155884669Y-67447999D01*
X155891490Y-67447629D01*
X155942352Y-67442105D01*
X155957604Y-67438479D01*
X156078054Y-67393324D01*
X156093649Y-67384786D01*
X156195724Y-67308285D01*
X156208285Y-67295724D01*
X156284786Y-67193649D01*
X156293324Y-67178054D01*
X156338478Y-67057606D01*
X156342105Y-67042351D01*
X156347631Y-66991486D01*
X156348000Y-66984672D01*
X156348000Y-66312115D01*
X156343525Y-66296876D01*
X156342135Y-66295671D01*
X156334452Y-66294000D01*
X155212115Y-66294000D01*
X155196876Y-66298475D01*
X155195671Y-66299865D01*
X155194000Y-66307548D01*
X155194000Y-67429884D01*
X154686000Y-67429884D01*
X154686000Y-65767885D01*
X155194000Y-65767885D01*
X155198475Y-65783124D01*
X155199865Y-65784329D01*
X155207548Y-65786000D01*
X156329884Y-65786000D01*
X156345123Y-65781525D01*
X156346328Y-65780135D01*
X156347999Y-65772452D01*
X156347999Y-65095331D01*
X156347629Y-65088510D01*
X156342105Y-65037648D01*
X156338479Y-65022396D01*
X156293324Y-64901946D01*
X156284786Y-64886351D01*
X156208285Y-64784276D01*
X156195724Y-64771715D01*
X156093649Y-64695214D01*
X156078054Y-64686676D01*
X155957606Y-64641522D01*
X155942351Y-64637895D01*
X155891486Y-64632369D01*
X155884672Y-64632000D01*
X155212115Y-64632000D01*
X155196876Y-64636475D01*
X155195671Y-64637865D01*
X155194000Y-64645548D01*
X155194000Y-65767885D01*
X154686000Y-65767885D01*
X154686000Y-64650116D01*
X154681525Y-64634877D01*
X154680135Y-64633672D01*
X154672452Y-64632001D01*
X153995331Y-64632001D01*
X153988510Y-64632371D01*
X153937648Y-64637895D01*
X153922396Y-64641521D01*
X153801946Y-64686676D01*
X153786351Y-64695214D01*
X153684276Y-64771715D01*
X153671715Y-64784276D01*
X153595214Y-64886351D01*
X153586675Y-64901948D01*
X153565934Y-64957275D01*
X153523293Y-65014040D01*
X153456731Y-65038740D01*
X153387383Y-65023533D01*
X153364388Y-65006909D01*
X153363887Y-65006358D01*
X153236348Y-64905634D01*
X153186177Y-64866011D01*
X153186172Y-64866008D01*
X153182123Y-64862810D01*
X153177607Y-64860317D01*
X153177604Y-64860315D01*
X152983879Y-64753373D01*
X152983875Y-64753371D01*
X152979355Y-64750876D01*
X152974486Y-64749152D01*
X152974482Y-64749150D01*
X152765903Y-64675288D01*
X152765899Y-64675287D01*
X152761028Y-64673562D01*
X152755935Y-64672655D01*
X152755932Y-64672654D01*
X152538095Y-64633851D01*
X152538089Y-64633850D01*
X152533006Y-64632945D01*
X152455644Y-64632000D01*
X152306581Y-64630179D01*
X152306579Y-64630179D01*
X152301411Y-64630116D01*
X152072464Y-64665150D01*
X151852314Y-64737106D01*
X151847726Y-64739494D01*
X151847722Y-64739496D01*
X151651461Y-64841663D01*
X151646872Y-64844052D01*
X151642739Y-64847155D01*
X151642736Y-64847157D01*
X151496073Y-64957275D01*
X151461655Y-64983117D01*
X151301639Y-65150564D01*
X151171119Y-65341899D01*
X151073602Y-65551981D01*
X151011707Y-65775169D01*
X150987095Y-66005469D01*
X142280477Y-66005469D01*
X142263543Y-65811913D01*
X142255028Y-65780135D01*
X142205707Y-65596067D01*
X142205706Y-65596065D01*
X142204284Y-65590757D01*
X142184020Y-65547301D01*
X142109849Y-65388238D01*
X142109846Y-65388233D01*
X142107523Y-65383251D01*
X141976198Y-65195700D01*
X141814300Y-65033802D01*
X141809792Y-65030645D01*
X141809789Y-65030643D01*
X141705008Y-64957275D01*
X141626749Y-64902477D01*
X141621767Y-64900154D01*
X141621762Y-64900151D01*
X141424225Y-64808039D01*
X141424224Y-64808039D01*
X141419243Y-64805716D01*
X141413935Y-64804294D01*
X141413933Y-64804293D01*
X141203402Y-64747881D01*
X141203400Y-64747881D01*
X141198087Y-64746457D01*
X140970000Y-64726502D01*
X140741913Y-64746457D01*
X140736600Y-64747881D01*
X140736598Y-64747881D01*
X140526067Y-64804293D01*
X140526065Y-64804294D01*
X140520757Y-64805716D01*
X140515776Y-64808039D01*
X140515775Y-64808039D01*
X140318238Y-64900151D01*
X140318233Y-64900154D01*
X140313251Y-64902477D01*
X140234992Y-64957275D01*
X140130211Y-65030643D01*
X140130208Y-65030645D01*
X140125700Y-65033802D01*
X139963802Y-65195700D01*
X139832477Y-65383251D01*
X139830154Y-65388233D01*
X139830151Y-65388238D01*
X139755980Y-65547301D01*
X139735716Y-65590757D01*
X139734294Y-65596065D01*
X139734293Y-65596067D01*
X139684972Y-65780135D01*
X139676457Y-65811913D01*
X139656502Y-66040000D01*
X134663498Y-66040000D01*
X134643543Y-65811913D01*
X134635028Y-65780135D01*
X134585707Y-65596067D01*
X134585706Y-65596065D01*
X134584284Y-65590757D01*
X134564020Y-65547301D01*
X134489849Y-65388238D01*
X134489846Y-65388233D01*
X134487523Y-65383251D01*
X134356198Y-65195700D01*
X134194300Y-65033802D01*
X134189792Y-65030645D01*
X134189789Y-65030643D01*
X134085008Y-64957275D01*
X134006749Y-64902477D01*
X134001767Y-64900154D01*
X134001762Y-64900151D01*
X133804225Y-64808039D01*
X133804224Y-64808039D01*
X133799243Y-64805716D01*
X133793935Y-64804294D01*
X133793933Y-64804293D01*
X133583402Y-64747881D01*
X133583400Y-64747881D01*
X133578087Y-64746457D01*
X133350000Y-64726502D01*
X133121913Y-64746457D01*
X133116600Y-64747881D01*
X133116598Y-64747881D01*
X132906067Y-64804293D01*
X132906065Y-64804294D01*
X132900757Y-64805716D01*
X132895776Y-64808039D01*
X132895775Y-64808039D01*
X132698238Y-64900151D01*
X132698233Y-64900154D01*
X132693251Y-64902477D01*
X132614992Y-64957275D01*
X132510211Y-65030643D01*
X132510208Y-65030645D01*
X132505700Y-65033802D01*
X132343802Y-65195700D01*
X132212477Y-65383251D01*
X132210154Y-65388233D01*
X132210151Y-65388238D01*
X132135980Y-65547301D01*
X132115716Y-65590757D01*
X132114294Y-65596065D01*
X132114293Y-65596067D01*
X132064972Y-65780135D01*
X132056457Y-65811913D01*
X132036502Y-66040000D01*
X132056457Y-66268087D01*
X132057881Y-66273400D01*
X132057881Y-66273402D01*
X132109871Y-66467428D01*
X132115716Y-66489243D01*
X132118039Y-66494224D01*
X132118039Y-66494225D01*
X132210151Y-66691762D01*
X132210154Y-66691767D01*
X132212477Y-66696749D01*
X132215634Y-66701257D01*
X132334012Y-66870318D01*
X132343802Y-66884300D01*
X132505700Y-67046198D01*
X132510208Y-67049355D01*
X132510211Y-67049357D01*
X132662771Y-67156181D01*
X132707099Y-67211638D01*
X132716500Y-67259394D01*
X132716500Y-77520606D01*
X132696498Y-77588727D01*
X132662771Y-77623819D01*
X132510211Y-77730643D01*
X132510208Y-77730645D01*
X132505700Y-77733802D01*
X132343802Y-77895700D01*
X132212477Y-78083251D01*
X132210154Y-78088233D01*
X132210151Y-78088238D01*
X132172287Y-78169439D01*
X132115716Y-78290757D01*
X132114294Y-78296065D01*
X132114293Y-78296067D01*
X132057881Y-78506598D01*
X132056457Y-78511913D01*
X132036502Y-78740000D01*
X132056457Y-78968087D01*
X132057881Y-78973400D01*
X132057881Y-78973402D01*
X132109871Y-79167428D01*
X132115716Y-79189243D01*
X132118039Y-79194224D01*
X132118039Y-79194225D01*
X132210151Y-79391762D01*
X132210154Y-79391767D01*
X132212477Y-79396749D01*
X132215634Y-79401257D01*
X132334012Y-79570318D01*
X132343802Y-79584300D01*
X132505700Y-79746198D01*
X132510208Y-79749355D01*
X132510211Y-79749357D01*
X132662771Y-79856181D01*
X132707099Y-79911638D01*
X132716500Y-79959394D01*
X132716500Y-90220606D01*
X132696498Y-90288727D01*
X132662771Y-90323819D01*
X132510211Y-90430643D01*
X132510208Y-90430645D01*
X132505700Y-90433802D01*
X132343802Y-90595700D01*
X132212477Y-90783251D01*
X132210154Y-90788233D01*
X132210151Y-90788238D01*
X132135980Y-90947301D01*
X132115716Y-90990757D01*
X132114294Y-90996065D01*
X132114293Y-90996067D01*
X132064972Y-91180135D01*
X132056457Y-91211913D01*
X132036502Y-91440000D01*
X107188500Y-91440000D01*
X107188500Y-81930400D01*
X110326500Y-81930400D01*
X110337474Y-82036166D01*
X110393450Y-82203946D01*
X110486522Y-82354348D01*
X110611697Y-82479305D01*
X110617927Y-82483145D01*
X110617928Y-82483146D01*
X110755090Y-82567694D01*
X110762262Y-82572115D01*
X110842005Y-82598564D01*
X110923611Y-82625632D01*
X110923613Y-82625632D01*
X110930139Y-82627797D01*
X110936975Y-82628497D01*
X110936978Y-82628498D01*
X110980031Y-82632909D01*
X111034600Y-82638500D01*
X112485400Y-82638500D01*
X112488646Y-82638163D01*
X112488650Y-82638163D01*
X112584308Y-82628238D01*
X112584312Y-82628237D01*
X112591166Y-82627526D01*
X112597702Y-82625345D01*
X112597704Y-82625345D01*
X112729806Y-82581272D01*
X112758946Y-82571550D01*
X112909348Y-82478478D01*
X113034305Y-82353303D01*
X113127115Y-82202738D01*
X113182797Y-82034861D01*
X113193500Y-81930400D01*
X113193500Y-80629600D01*
X113182526Y-80523834D01*
X113126550Y-80356054D01*
X113033478Y-80205652D01*
X112908303Y-80080695D01*
X112762220Y-79990647D01*
X112714727Y-79937876D01*
X112703303Y-79867804D01*
X112731577Y-79802680D01*
X112741364Y-79792218D01*
X112851906Y-79686766D01*
X112858941Y-79678814D01*
X112990141Y-79502475D01*
X112995745Y-79493438D01*
X113095357Y-79297516D01*
X113099357Y-79287665D01*
X113164534Y-79077760D01*
X113166817Y-79067376D01*
X113168861Y-79051957D01*
X113166665Y-79037793D01*
X113153478Y-79034000D01*
X110368808Y-79034000D01*
X110355277Y-79037973D01*
X110353752Y-79048580D01*
X110378477Y-79166421D01*
X110381537Y-79176617D01*
X110462263Y-79381029D01*
X110466994Y-79390561D01*
X110581016Y-79578462D01*
X110587280Y-79587052D01*
X110731327Y-79753052D01*
X110738956Y-79760470D01*
X110770569Y-79786391D01*
X110810564Y-79845051D01*
X110812496Y-79916021D01*
X110775752Y-79976770D01*
X110756983Y-79990969D01*
X110610652Y-80081522D01*
X110485695Y-80206697D01*
X110392885Y-80357262D01*
X110337203Y-80525139D01*
X110326500Y-80629600D01*
X110326500Y-81930400D01*
X107188500Y-81930400D01*
X107188500Y-78508043D01*
X110351139Y-78508043D01*
X110353335Y-78522207D01*
X110366522Y-78526000D01*
X111487885Y-78526000D01*
X111503124Y-78521525D01*
X111504329Y-78520135D01*
X111506000Y-78512452D01*
X111506000Y-78507885D01*
X112014000Y-78507885D01*
X112018475Y-78523124D01*
X112019865Y-78524329D01*
X112027548Y-78526000D01*
X113151192Y-78526000D01*
X113164723Y-78522027D01*
X113166248Y-78511420D01*
X113141523Y-78393579D01*
X113138463Y-78383383D01*
X113057737Y-78178971D01*
X113053006Y-78169439D01*
X112938984Y-77981538D01*
X112932720Y-77972948D01*
X112788673Y-77806948D01*
X112781042Y-77799528D01*
X112611089Y-77660174D01*
X112602322Y-77654150D01*
X112411318Y-77545424D01*
X112401654Y-77540959D01*
X112195059Y-77465969D01*
X112184792Y-77463198D01*
X112031826Y-77435537D01*
X112018587Y-77436955D01*
X112014000Y-77451594D01*
X112014000Y-78507885D01*
X111506000Y-78507885D01*
X111506000Y-77450393D01*
X111501690Y-77435715D01*
X111489807Y-77433652D01*
X111460676Y-77436124D01*
X111450202Y-77437915D01*
X111237465Y-77493130D01*
X111227425Y-77496665D01*
X111027030Y-77586937D01*
X111017744Y-77592106D01*
X110835425Y-77714850D01*
X110827130Y-77721519D01*
X110668100Y-77873228D01*
X110661059Y-77881186D01*
X110529859Y-78057525D01*
X110524255Y-78066562D01*
X110424643Y-78262484D01*
X110420643Y-78272335D01*
X110355466Y-78482240D01*
X110353183Y-78492624D01*
X110351139Y-78508043D01*
X107188500Y-78508043D01*
X107188500Y-54126000D01*
X107208502Y-54057879D01*
X107262158Y-54011386D01*
X107314500Y-54000000D01*
X176874000Y-54000000D01*
X176942121Y-54020002D01*
G37*
%TD.AperFunction*%
%TD*%
M02*
