M48
; DRILL file {KiCad (6.0.7)} date Mon Aug 22 17:27:31 2022
; FORMAT={-:-/ absolute / metric / decimal}
; #@! TF.CreationDate,2022-08-22T17:27:31+09:00
; #@! TF.GenerationSoftware,Kicad,Pcbnew,(6.0.7)
; #@! TF.FileFunction,Plated,1,2,PTH
FMAT,2
METRIC
; #@! TA.AperFunction,Plated,PTH,ViaDrill
T1C0.400
; #@! TA.AperFunction,Plated,PTH,ComponentDrill
T2C0.800
; #@! TA.AperFunction,Plated,PTH,ComponentDrill
T3C0.900
; #@! TA.AperFunction,Plated,PTH,ComponentDrill
T4C1.000
; #@! TA.AperFunction,Plated,PTH,ComponentDrill
T5C1.500
%
G90
G05
T1
X141.605Y-43.815
X177.8Y-50.165
X179.07Y-51.435
T2
X125.73Y-41.91
X125.73Y-45.085
X125.73Y-48.26
X125.73Y-51.435
X126.365Y-81.915
X126.365Y-85.09
X126.365Y-88.265
X126.44Y-78.235
X133.35Y-41.91
X133.35Y-45.085
X133.35Y-48.26
X133.35Y-51.435
X133.985Y-81.915
X133.985Y-85.09
X133.985Y-88.265
X134.06Y-78.235
X179.69Y-81.28
X179.69Y-84.455
X179.705Y-43.815
X179.705Y-46.99
X179.705Y-74.93
X179.705Y-78.105
X187.31Y-81.28
X187.31Y-84.455
X187.325Y-43.815
X187.325Y-46.99
X187.325Y-74.93
X187.325Y-78.105
T3
X141.21Y-62.456
X143.05Y-70.726
X143.3Y-54.186
X143.75Y-62.456
X145.25Y-69.456
X145.5Y-55.456
X149.23Y-76.656
X149.48Y-48.757
X150.5Y-74.456
X150.75Y-50.956
X157.71Y-46.521
X157.71Y-49.061
X157.71Y-76.206
X157.71Y-78.746
X164.75Y-74.456
X164.8Y-50.906
X166.02Y-76.656
X166.07Y-48.707
X169.3Y-55.806
X169.75Y-69.456
X171.5Y-54.536
X171.6Y-62.396
X171.95Y-70.726
X174.14Y-62.396
T4
X141.99Y-88.265
X144.53Y-88.265
X147.07Y-88.265
X149.61Y-88.265
X151.13Y-40.005
X152.15Y-88.265
X153.67Y-40.005
X154.69Y-88.265
X156.21Y-40.005
X157.23Y-88.265
X158.75Y-40.005
X159.77Y-88.265
X161.29Y-40.005
X162.31Y-88.265
X163.83Y-40.005
X164.85Y-88.265
X166.37Y-40.005
X168.91Y-40.005
X168.91Y-88.265
X171.45Y-88.265
X173.99Y-40.005
X173.99Y-88.265
X176.53Y-40.005
X176.53Y-88.265
X179.07Y-40.005
X179.07Y-88.265
X181.61Y-40.005
X181.61Y-88.265
X184.15Y-40.005
X184.15Y-88.265
X186.69Y-40.005
X186.69Y-88.265
T5
X127.5Y-55.98
X127.5Y-68.48
X132.5Y-55.98
X132.5Y-68.48
X181.25Y-53.5
X181.25Y-66.0
X186.25Y-53.5
X186.25Y-66.0
T0
M30
