%TF.GenerationSoftware,KiCad,Pcbnew,(6.0.7)*%
%TF.CreationDate,2022-08-22T17:27:30+09:00*%
%TF.ProjectId,LED_RL_SD,4c45445f-524c-45f5-9344-2e6b69636164,rev?*%
%TF.SameCoordinates,Original*%
%TF.FileFunction,Drillmap*%
%TF.FilePolarity,Positive*%
%FSLAX45Y45*%
G04 Gerber Fmt 4.5, Leading zero omitted, Abs format (unit mm)*
G04 Created by KiCad (PCBNEW (6.0.7)) date 2022-08-22 17:27:30*
%MOMM*%
%LPD*%
G01*
G04 APERTURE LIST*
%ADD10C,0.100000*%
%ADD11C,0.200000*%
G04 APERTURE END LIST*
D10*
X12192000Y-9461500D02*
X12192000Y-3619500D01*
X18986500Y-9461500D02*
X12192000Y-9461500D01*
X19304000Y-9271000D02*
X18986500Y-9461500D01*
X19304000Y-4127500D02*
X19304000Y-9271000D01*
X18986500Y-3619500D02*
X19304000Y-4127500D01*
X12192000Y-3619500D02*
X18986500Y-3619500D01*
D11*
X12444619Y-9776976D02*
X12444619Y-9576976D01*
X12492238Y-9576976D01*
X12520809Y-9586500D01*
X12539857Y-9605548D01*
X12549381Y-9624595D01*
X12558905Y-9662690D01*
X12558905Y-9691262D01*
X12549381Y-9729357D01*
X12539857Y-9748405D01*
X12520809Y-9767452D01*
X12492238Y-9776976D01*
X12444619Y-9776976D01*
X12644619Y-9776976D02*
X12644619Y-9643643D01*
X12644619Y-9681738D02*
X12654143Y-9662690D01*
X12663667Y-9653167D01*
X12682714Y-9643643D01*
X12701762Y-9643643D01*
X12768428Y-9776976D02*
X12768428Y-9643643D01*
X12768428Y-9576976D02*
X12758905Y-9586500D01*
X12768428Y-9596024D01*
X12777952Y-9586500D01*
X12768428Y-9576976D01*
X12768428Y-9596024D01*
X12892238Y-9776976D02*
X12873190Y-9767452D01*
X12863667Y-9748405D01*
X12863667Y-9576976D01*
X12997000Y-9776976D02*
X12977952Y-9767452D01*
X12968428Y-9748405D01*
X12968428Y-9576976D01*
X13225571Y-9776976D02*
X13225571Y-9576976D01*
X13292238Y-9719833D01*
X13358905Y-9576976D01*
X13358905Y-9776976D01*
X13539857Y-9776976D02*
X13539857Y-9672214D01*
X13530333Y-9653167D01*
X13511286Y-9643643D01*
X13473190Y-9643643D01*
X13454143Y-9653167D01*
X13539857Y-9767452D02*
X13520809Y-9776976D01*
X13473190Y-9776976D01*
X13454143Y-9767452D01*
X13444619Y-9748405D01*
X13444619Y-9729357D01*
X13454143Y-9710310D01*
X13473190Y-9700786D01*
X13520809Y-9700786D01*
X13539857Y-9691262D01*
X13635095Y-9643643D02*
X13635095Y-9843643D01*
X13635095Y-9653167D02*
X13654143Y-9643643D01*
X13692238Y-9643643D01*
X13711286Y-9653167D01*
X13720809Y-9662690D01*
X13730333Y-9681738D01*
X13730333Y-9738881D01*
X13720809Y-9757929D01*
X13711286Y-9767452D01*
X13692238Y-9776976D01*
X13654143Y-9776976D01*
X13635095Y-9767452D01*
X13816048Y-9757929D02*
X13825571Y-9767452D01*
X13816048Y-9776976D01*
X13806524Y-9767452D01*
X13816048Y-9757929D01*
X13816048Y-9776976D01*
X13816048Y-9653167D02*
X13825571Y-9662690D01*
X13816048Y-9672214D01*
X13806524Y-9662690D01*
X13816048Y-9653167D01*
X13816048Y-9672214D01*
M02*
