%TF.GenerationSoftware,KiCad,Pcbnew,(6.0.7)*%
%TF.CreationDate,2022-08-22T17:27:46+09:00*%
%TF.ProjectId,LED_RL_SD,4c45445f-524c-45f5-9344-2e6b69636164,rev?*%
%TF.SameCoordinates,Original*%
%TF.FileFunction,Legend,Top*%
%TF.FilePolarity,Positive*%
%FSLAX46Y46*%
G04 Gerber Fmt 4.6, Leading zero omitted, Abs format (unit mm)*
G04 Created by KiCad (PCBNEW (6.0.7)) date 2022-08-22 17:27:46*
%MOMM*%
%LPD*%
G01*
G04 APERTURE LIST*
%ADD10C,0.150000*%
%ADD11C,0.300000*%
%ADD12C,0.750000*%
%ADD13C,0.120000*%
G04 APERTURE END LIST*
D10*
X152059523Y-53658868D02*
X151488095Y-53658868D01*
X151773809Y-53658868D02*
X151773809Y-52658868D01*
X151678571Y-52801726D01*
X151583333Y-52896964D01*
X151488095Y-52944583D01*
X153011904Y-53658868D02*
X152440476Y-53658868D01*
X152726190Y-53658868D02*
X152726190Y-52658868D01*
X152630952Y-52801726D01*
X152535714Y-52896964D01*
X152440476Y-52944583D01*
X148059523Y-57408868D02*
X147488095Y-57408868D01*
X147773809Y-57408868D02*
X147773809Y-56408868D01*
X147678571Y-56551726D01*
X147583333Y-56646964D01*
X147488095Y-56694583D01*
X148678571Y-56408868D02*
X148773809Y-56408868D01*
X148869047Y-56456488D01*
X148916666Y-56504107D01*
X148964285Y-56599345D01*
X149011904Y-56789821D01*
X149011904Y-57027916D01*
X148964285Y-57218392D01*
X148916666Y-57313630D01*
X148869047Y-57361249D01*
X148773809Y-57408868D01*
X148678571Y-57408868D01*
X148583333Y-57361249D01*
X148535714Y-57313630D01*
X148488095Y-57218392D01*
X148440476Y-57027916D01*
X148440476Y-56789821D01*
X148488095Y-56599345D01*
X148535714Y-56504107D01*
X148583333Y-56456488D01*
X148678571Y-56408868D01*
X147059523Y-62908868D02*
X147250000Y-62908868D01*
X147345238Y-62861249D01*
X147392857Y-62813630D01*
X147488095Y-62670773D01*
X147535714Y-62480297D01*
X147535714Y-62099345D01*
X147488095Y-62004107D01*
X147440476Y-61956488D01*
X147345238Y-61908868D01*
X147154761Y-61908868D01*
X147059523Y-61956488D01*
X147011904Y-62004107D01*
X146964285Y-62099345D01*
X146964285Y-62337440D01*
X147011904Y-62432678D01*
X147059523Y-62480297D01*
X147154761Y-62527916D01*
X147345238Y-62527916D01*
X147440476Y-62480297D01*
X147488095Y-62432678D01*
X147535714Y-62337440D01*
X148404761Y-67587440D02*
X148309523Y-67539821D01*
X148261904Y-67492202D01*
X148214285Y-67396964D01*
X148214285Y-67349345D01*
X148261904Y-67254107D01*
X148309523Y-67206488D01*
X148404761Y-67158868D01*
X148595238Y-67158868D01*
X148690476Y-67206488D01*
X148738095Y-67254107D01*
X148785714Y-67349345D01*
X148785714Y-67396964D01*
X148738095Y-67492202D01*
X148690476Y-67539821D01*
X148595238Y-67587440D01*
X148404761Y-67587440D01*
X148309523Y-67635059D01*
X148261904Y-67682678D01*
X148214285Y-67777916D01*
X148214285Y-67968392D01*
X148261904Y-68063630D01*
X148309523Y-68111249D01*
X148404761Y-68158868D01*
X148595238Y-68158868D01*
X148690476Y-68111249D01*
X148738095Y-68063630D01*
X148785714Y-67968392D01*
X148785714Y-67777916D01*
X148738095Y-67682678D01*
X148690476Y-67635059D01*
X148595238Y-67587440D01*
X152166666Y-70408868D02*
X152833333Y-70408868D01*
X152404761Y-71408868D01*
X157940476Y-71908868D02*
X157750000Y-71908868D01*
X157654761Y-71956488D01*
X157607142Y-72004107D01*
X157511904Y-72146964D01*
X157464285Y-72337440D01*
X157464285Y-72718392D01*
X157511904Y-72813630D01*
X157559523Y-72861249D01*
X157654761Y-72908868D01*
X157845238Y-72908868D01*
X157940476Y-72861249D01*
X157988095Y-72813630D01*
X158035714Y-72718392D01*
X158035714Y-72480297D01*
X157988095Y-72385059D01*
X157940476Y-72337440D01*
X157845238Y-72289821D01*
X157654761Y-72289821D01*
X157559523Y-72337440D01*
X157511904Y-72385059D01*
X157464285Y-72480297D01*
X163238095Y-70908868D02*
X162761904Y-70908868D01*
X162714285Y-71385059D01*
X162761904Y-71337440D01*
X162857142Y-71289821D01*
X163095238Y-71289821D01*
X163190476Y-71337440D01*
X163238095Y-71385059D01*
X163285714Y-71480297D01*
X163285714Y-71718392D01*
X163238095Y-71813630D01*
X163190476Y-71861249D01*
X163095238Y-71908868D01*
X162857142Y-71908868D01*
X162761904Y-71861249D01*
X162714285Y-71813630D01*
X167190476Y-67492202D02*
X167190476Y-68158868D01*
X166952380Y-67111249D02*
X166714285Y-67825535D01*
X167333333Y-67825535D01*
X167916666Y-61908868D02*
X168535714Y-61908868D01*
X168202380Y-62289821D01*
X168345238Y-62289821D01*
X168440476Y-62337440D01*
X168488095Y-62385059D01*
X168535714Y-62480297D01*
X168535714Y-62718392D01*
X168488095Y-62813630D01*
X168440476Y-62861249D01*
X168345238Y-62908868D01*
X168059523Y-62908868D01*
X167964285Y-62861249D01*
X167916666Y-62813630D01*
X166714285Y-56559107D02*
X166761904Y-56511488D01*
X166857142Y-56463868D01*
X167095238Y-56463868D01*
X167190476Y-56511488D01*
X167238095Y-56559107D01*
X167285714Y-56654345D01*
X167285714Y-56749583D01*
X167238095Y-56892440D01*
X166666666Y-57463868D01*
X167285714Y-57463868D01*
X163535714Y-53408868D02*
X162964285Y-53408868D01*
X163250000Y-53408868D02*
X163250000Y-52408868D01*
X163154761Y-52551726D01*
X163059523Y-52646964D01*
X162964285Y-52694583D01*
X157559523Y-52158868D02*
X156988095Y-52158868D01*
X157273809Y-52158868D02*
X157273809Y-51158868D01*
X157178571Y-51301726D01*
X157083333Y-51396964D01*
X156988095Y-51444583D01*
X157940476Y-51254107D02*
X157988095Y-51206488D01*
X158083333Y-51158868D01*
X158321428Y-51158868D01*
X158416666Y-51206488D01*
X158464285Y-51254107D01*
X158511904Y-51349345D01*
X158511904Y-51444583D01*
X158464285Y-51587440D01*
X157892857Y-52158868D01*
X158511904Y-52158868D01*
D11*
%TO.C,G\u002A\u002A\u002A*%
X156137428Y-97028000D02*
X155992285Y-96955428D01*
X155774571Y-96955428D01*
X155556857Y-97028000D01*
X155411714Y-97173142D01*
X155339142Y-97318285D01*
X155266571Y-97608571D01*
X155266571Y-97826285D01*
X155339142Y-98116571D01*
X155411714Y-98261714D01*
X155556857Y-98406857D01*
X155774571Y-98479428D01*
X155919714Y-98479428D01*
X156137428Y-98406857D01*
X156210000Y-98334285D01*
X156210000Y-97826285D01*
X155919714Y-97826285D01*
X157080857Y-96955428D02*
X157080857Y-97318285D01*
X156718000Y-97173142D02*
X157080857Y-97318285D01*
X157443714Y-97173142D01*
X156863142Y-97608571D02*
X157080857Y-97318285D01*
X157298571Y-97608571D01*
X158242000Y-96955428D02*
X158242000Y-97318285D01*
X157879142Y-97173142D02*
X158242000Y-97318285D01*
X158604857Y-97173142D01*
X158024285Y-97608571D02*
X158242000Y-97318285D01*
X158459714Y-97608571D01*
X159403142Y-96955428D02*
X159403142Y-97318285D01*
X159040285Y-97173142D02*
X159403142Y-97318285D01*
X159766000Y-97173142D01*
X159185428Y-97608571D02*
X159403142Y-97318285D01*
X159620857Y-97608571D01*
D10*
%TO.C,S2*%
X179474761Y-64261904D02*
X179522380Y-64119047D01*
X179522380Y-63880952D01*
X179474761Y-63785714D01*
X179427142Y-63738095D01*
X179331904Y-63690476D01*
X179236666Y-63690476D01*
X179141428Y-63738095D01*
X179093809Y-63785714D01*
X179046190Y-63880952D01*
X178998571Y-64071428D01*
X178950952Y-64166666D01*
X178903333Y-64214285D01*
X178808095Y-64261904D01*
X178712857Y-64261904D01*
X178617619Y-64214285D01*
X178570000Y-64166666D01*
X178522380Y-64071428D01*
X178522380Y-63833333D01*
X178570000Y-63690476D01*
X178617619Y-63309523D02*
X178570000Y-63261904D01*
X178522380Y-63166666D01*
X178522380Y-62928571D01*
X178570000Y-62833333D01*
X178617619Y-62785714D01*
X178712857Y-62738095D01*
X178808095Y-62738095D01*
X178950952Y-62785714D01*
X179522380Y-63357142D01*
X179522380Y-62738095D01*
%TO.C,S1*%
X125499761Y-69281904D02*
X125547380Y-69139047D01*
X125547380Y-68900952D01*
X125499761Y-68805714D01*
X125452142Y-68758095D01*
X125356904Y-68710476D01*
X125261666Y-68710476D01*
X125166428Y-68758095D01*
X125118809Y-68805714D01*
X125071190Y-68900952D01*
X125023571Y-69091428D01*
X124975952Y-69186666D01*
X124928333Y-69234285D01*
X124833095Y-69281904D01*
X124737857Y-69281904D01*
X124642619Y-69234285D01*
X124595000Y-69186666D01*
X124547380Y-69091428D01*
X124547380Y-68853333D01*
X124595000Y-68710476D01*
X125547380Y-67758095D02*
X125547380Y-68329523D01*
X125547380Y-68043809D02*
X124547380Y-68043809D01*
X124690238Y-68139047D01*
X124785476Y-68234285D01*
X124833095Y-68329523D01*
%TO.C,R14*%
X135247142Y-51252380D02*
X134913809Y-50776190D01*
X134675714Y-51252380D02*
X134675714Y-50252380D01*
X135056666Y-50252380D01*
X135151904Y-50300000D01*
X135199523Y-50347619D01*
X135247142Y-50442857D01*
X135247142Y-50585714D01*
X135199523Y-50680952D01*
X135151904Y-50728571D01*
X135056666Y-50776190D01*
X134675714Y-50776190D01*
X136199523Y-51252380D02*
X135628095Y-51252380D01*
X135913809Y-51252380D02*
X135913809Y-50252380D01*
X135818571Y-50395238D01*
X135723333Y-50490476D01*
X135628095Y-50538095D01*
X137056666Y-50585714D02*
X137056666Y-51252380D01*
X136818571Y-50204761D02*
X136580476Y-50919047D01*
X137199523Y-50919047D01*
%TO.C,R13*%
X135247142Y-41322380D02*
X134913809Y-40846190D01*
X134675714Y-41322380D02*
X134675714Y-40322380D01*
X135056666Y-40322380D01*
X135151904Y-40370000D01*
X135199523Y-40417619D01*
X135247142Y-40512857D01*
X135247142Y-40655714D01*
X135199523Y-40750952D01*
X135151904Y-40798571D01*
X135056666Y-40846190D01*
X134675714Y-40846190D01*
X136199523Y-41322380D02*
X135628095Y-41322380D01*
X135913809Y-41322380D02*
X135913809Y-40322380D01*
X135818571Y-40465238D01*
X135723333Y-40560476D01*
X135628095Y-40608095D01*
X136532857Y-40322380D02*
X137151904Y-40322380D01*
X136818571Y-40703333D01*
X136961428Y-40703333D01*
X137056666Y-40750952D01*
X137104285Y-40798571D01*
X137151904Y-40893809D01*
X137151904Y-41131904D01*
X137104285Y-41227142D01*
X137056666Y-41274761D01*
X136961428Y-41322380D01*
X136675714Y-41322380D01*
X136580476Y-41274761D01*
X136532857Y-41227142D01*
%TO.C,R12*%
X135247142Y-48077380D02*
X134913809Y-47601190D01*
X134675714Y-48077380D02*
X134675714Y-47077380D01*
X135056666Y-47077380D01*
X135151904Y-47125000D01*
X135199523Y-47172619D01*
X135247142Y-47267857D01*
X135247142Y-47410714D01*
X135199523Y-47505952D01*
X135151904Y-47553571D01*
X135056666Y-47601190D01*
X134675714Y-47601190D01*
X136199523Y-48077380D02*
X135628095Y-48077380D01*
X135913809Y-48077380D02*
X135913809Y-47077380D01*
X135818571Y-47220238D01*
X135723333Y-47315476D01*
X135628095Y-47363095D01*
X136580476Y-47172619D02*
X136628095Y-47125000D01*
X136723333Y-47077380D01*
X136961428Y-47077380D01*
X137056666Y-47125000D01*
X137104285Y-47172619D01*
X137151904Y-47267857D01*
X137151904Y-47363095D01*
X137104285Y-47505952D01*
X136532857Y-48077380D01*
X137151904Y-48077380D01*
%TO.C,R11*%
X176522142Y-46807380D02*
X176188809Y-46331190D01*
X175950714Y-46807380D02*
X175950714Y-45807380D01*
X176331666Y-45807380D01*
X176426904Y-45855000D01*
X176474523Y-45902619D01*
X176522142Y-45997857D01*
X176522142Y-46140714D01*
X176474523Y-46235952D01*
X176426904Y-46283571D01*
X176331666Y-46331190D01*
X175950714Y-46331190D01*
X177474523Y-46807380D02*
X176903095Y-46807380D01*
X177188809Y-46807380D02*
X177188809Y-45807380D01*
X177093571Y-45950238D01*
X176998333Y-46045476D01*
X176903095Y-46093095D01*
X178426904Y-46807380D02*
X177855476Y-46807380D01*
X178141190Y-46807380D02*
X178141190Y-45807380D01*
X178045952Y-45950238D01*
X177950714Y-46045476D01*
X177855476Y-46093095D01*
%TO.C,R10*%
X136517142Y-83002380D02*
X136183809Y-82526190D01*
X135945714Y-83002380D02*
X135945714Y-82002380D01*
X136326666Y-82002380D01*
X136421904Y-82050000D01*
X136469523Y-82097619D01*
X136517142Y-82192857D01*
X136517142Y-82335714D01*
X136469523Y-82430952D01*
X136421904Y-82478571D01*
X136326666Y-82526190D01*
X135945714Y-82526190D01*
X137469523Y-83002380D02*
X136898095Y-83002380D01*
X137183809Y-83002380D02*
X137183809Y-82002380D01*
X137088571Y-82145238D01*
X136993333Y-82240476D01*
X136898095Y-82288095D01*
X138088571Y-82002380D02*
X138183809Y-82002380D01*
X138279047Y-82050000D01*
X138326666Y-82097619D01*
X138374285Y-82192857D01*
X138421904Y-82383333D01*
X138421904Y-82621428D01*
X138374285Y-82811904D01*
X138326666Y-82907142D01*
X138279047Y-82954761D01*
X138183809Y-83002380D01*
X138088571Y-83002380D01*
X137993333Y-82954761D01*
X137945714Y-82907142D01*
X137898095Y-82811904D01*
X137850476Y-82621428D01*
X137850476Y-82383333D01*
X137898095Y-82192857D01*
X137945714Y-82097619D01*
X137993333Y-82050000D01*
X138088571Y-82002380D01*
%TO.C,R9*%
X136358333Y-86177380D02*
X136025000Y-85701190D01*
X135786904Y-86177380D02*
X135786904Y-85177380D01*
X136167857Y-85177380D01*
X136263095Y-85225000D01*
X136310714Y-85272619D01*
X136358333Y-85367857D01*
X136358333Y-85510714D01*
X136310714Y-85605952D01*
X136263095Y-85653571D01*
X136167857Y-85701190D01*
X135786904Y-85701190D01*
X136834523Y-86177380D02*
X137025000Y-86177380D01*
X137120238Y-86129761D01*
X137167857Y-86082142D01*
X137263095Y-85939285D01*
X137310714Y-85748809D01*
X137310714Y-85367857D01*
X137263095Y-85272619D01*
X137215476Y-85225000D01*
X137120238Y-85177380D01*
X136929761Y-85177380D01*
X136834523Y-85225000D01*
X136786904Y-85272619D01*
X136739285Y-85367857D01*
X136739285Y-85605952D01*
X136786904Y-85701190D01*
X136834523Y-85748809D01*
X136929761Y-85796428D01*
X137120238Y-85796428D01*
X137215476Y-85748809D01*
X137263095Y-85701190D01*
X137310714Y-85605952D01*
%TO.C,R8*%
X176998333Y-81097380D02*
X176665000Y-80621190D01*
X176426904Y-81097380D02*
X176426904Y-80097380D01*
X176807857Y-80097380D01*
X176903095Y-80145000D01*
X176950714Y-80192619D01*
X176998333Y-80287857D01*
X176998333Y-80430714D01*
X176950714Y-80525952D01*
X176903095Y-80573571D01*
X176807857Y-80621190D01*
X176426904Y-80621190D01*
X177569761Y-80525952D02*
X177474523Y-80478333D01*
X177426904Y-80430714D01*
X177379285Y-80335476D01*
X177379285Y-80287857D01*
X177426904Y-80192619D01*
X177474523Y-80145000D01*
X177569761Y-80097380D01*
X177760238Y-80097380D01*
X177855476Y-80145000D01*
X177903095Y-80192619D01*
X177950714Y-80287857D01*
X177950714Y-80335476D01*
X177903095Y-80430714D01*
X177855476Y-80478333D01*
X177760238Y-80525952D01*
X177569761Y-80525952D01*
X177474523Y-80573571D01*
X177426904Y-80621190D01*
X177379285Y-80716428D01*
X177379285Y-80906904D01*
X177426904Y-81002142D01*
X177474523Y-81049761D01*
X177569761Y-81097380D01*
X177760238Y-81097380D01*
X177855476Y-81049761D01*
X177903095Y-81002142D01*
X177950714Y-80906904D01*
X177950714Y-80716428D01*
X177903095Y-80621190D01*
X177855476Y-80573571D01*
X177760238Y-80525952D01*
%TO.C,R7*%
X176998333Y-74112380D02*
X176665000Y-73636190D01*
X176426904Y-74112380D02*
X176426904Y-73112380D01*
X176807857Y-73112380D01*
X176903095Y-73160000D01*
X176950714Y-73207619D01*
X176998333Y-73302857D01*
X176998333Y-73445714D01*
X176950714Y-73540952D01*
X176903095Y-73588571D01*
X176807857Y-73636190D01*
X176426904Y-73636190D01*
X177331666Y-73112380D02*
X177998333Y-73112380D01*
X177569761Y-74112380D01*
%TO.C,R6*%
X176998333Y-43227380D02*
X176665000Y-42751190D01*
X176426904Y-43227380D02*
X176426904Y-42227380D01*
X176807857Y-42227380D01*
X176903095Y-42275000D01*
X176950714Y-42322619D01*
X176998333Y-42417857D01*
X176998333Y-42560714D01*
X176950714Y-42655952D01*
X176903095Y-42703571D01*
X176807857Y-42751190D01*
X176426904Y-42751190D01*
X177855476Y-42227380D02*
X177665000Y-42227380D01*
X177569761Y-42275000D01*
X177522142Y-42322619D01*
X177426904Y-42465476D01*
X177379285Y-42655952D01*
X177379285Y-43036904D01*
X177426904Y-43132142D01*
X177474523Y-43179761D01*
X177569761Y-43227380D01*
X177760238Y-43227380D01*
X177855476Y-43179761D01*
X177903095Y-43132142D01*
X177950714Y-43036904D01*
X177950714Y-42798809D01*
X177903095Y-42703571D01*
X177855476Y-42655952D01*
X177760238Y-42608333D01*
X177569761Y-42608333D01*
X177474523Y-42655952D01*
X177426904Y-42703571D01*
X177379285Y-42798809D01*
%TO.C,R5*%
X135088333Y-44902380D02*
X134755000Y-44426190D01*
X134516904Y-44902380D02*
X134516904Y-43902380D01*
X134897857Y-43902380D01*
X134993095Y-43950000D01*
X135040714Y-43997619D01*
X135088333Y-44092857D01*
X135088333Y-44235714D01*
X135040714Y-44330952D01*
X134993095Y-44378571D01*
X134897857Y-44426190D01*
X134516904Y-44426190D01*
X135993095Y-43902380D02*
X135516904Y-43902380D01*
X135469285Y-44378571D01*
X135516904Y-44330952D01*
X135612142Y-44283333D01*
X135850238Y-44283333D01*
X135945476Y-44330952D01*
X135993095Y-44378571D01*
X136040714Y-44473809D01*
X136040714Y-44711904D01*
X135993095Y-44807142D01*
X135945476Y-44854761D01*
X135850238Y-44902380D01*
X135612142Y-44902380D01*
X135516904Y-44854761D01*
X135469285Y-44807142D01*
%TO.C,R4*%
X136358333Y-89352380D02*
X136025000Y-88876190D01*
X135786904Y-89352380D02*
X135786904Y-88352380D01*
X136167857Y-88352380D01*
X136263095Y-88400000D01*
X136310714Y-88447619D01*
X136358333Y-88542857D01*
X136358333Y-88685714D01*
X136310714Y-88780952D01*
X136263095Y-88828571D01*
X136167857Y-88876190D01*
X135786904Y-88876190D01*
X137215476Y-88685714D02*
X137215476Y-89352380D01*
X136977380Y-88304761D02*
X136739285Y-89019047D01*
X137358333Y-89019047D01*
%TO.C,R3*%
X176998333Y-84262380D02*
X176665000Y-83786190D01*
X176426904Y-84262380D02*
X176426904Y-83262380D01*
X176807857Y-83262380D01*
X176903095Y-83310000D01*
X176950714Y-83357619D01*
X176998333Y-83452857D01*
X176998333Y-83595714D01*
X176950714Y-83690952D01*
X176903095Y-83738571D01*
X176807857Y-83786190D01*
X176426904Y-83786190D01*
X177331666Y-83262380D02*
X177950714Y-83262380D01*
X177617380Y-83643333D01*
X177760238Y-83643333D01*
X177855476Y-83690952D01*
X177903095Y-83738571D01*
X177950714Y-83833809D01*
X177950714Y-84071904D01*
X177903095Y-84167142D01*
X177855476Y-84214761D01*
X177760238Y-84262380D01*
X177474523Y-84262380D01*
X177379285Y-84214761D01*
X177331666Y-84167142D01*
%TO.C,R2*%
X176953333Y-77792380D02*
X176620000Y-77316190D01*
X176381904Y-77792380D02*
X176381904Y-76792380D01*
X176762857Y-76792380D01*
X176858095Y-76840000D01*
X176905714Y-76887619D01*
X176953333Y-76982857D01*
X176953333Y-77125714D01*
X176905714Y-77220952D01*
X176858095Y-77268571D01*
X176762857Y-77316190D01*
X176381904Y-77316190D01*
X177334285Y-76887619D02*
X177381904Y-76840000D01*
X177477142Y-76792380D01*
X177715238Y-76792380D01*
X177810476Y-76840000D01*
X177858095Y-76887619D01*
X177905714Y-76982857D01*
X177905714Y-77078095D01*
X177858095Y-77220952D01*
X177286666Y-77792380D01*
X177905714Y-77792380D01*
%TO.C,R1*%
X136358333Y-79192380D02*
X136025000Y-78716190D01*
X135786904Y-79192380D02*
X135786904Y-78192380D01*
X136167857Y-78192380D01*
X136263095Y-78240000D01*
X136310714Y-78287619D01*
X136358333Y-78382857D01*
X136358333Y-78525714D01*
X136310714Y-78620952D01*
X136263095Y-78668571D01*
X136167857Y-78716190D01*
X135786904Y-78716190D01*
X137310714Y-79192380D02*
X136739285Y-79192380D01*
X137025000Y-79192380D02*
X137025000Y-78192380D01*
X136929761Y-78335238D01*
X136834523Y-78430476D01*
X136739285Y-78478095D01*
%TO.C,D12*%
X154202380Y-49005773D02*
X153202380Y-49005773D01*
X153202380Y-48767678D01*
X153250000Y-48624821D01*
X153345238Y-48529583D01*
X153440476Y-48481964D01*
X153630952Y-48434345D01*
X153773809Y-48434345D01*
X153964285Y-48481964D01*
X154059523Y-48529583D01*
X154154761Y-48624821D01*
X154202380Y-48767678D01*
X154202380Y-49005773D01*
X154202380Y-47481964D02*
X154202380Y-48053392D01*
X154202380Y-47767678D02*
X153202380Y-47767678D01*
X153345238Y-47862916D01*
X153440476Y-47958154D01*
X153488095Y-48053392D01*
X153297619Y-47101011D02*
X153250000Y-47053392D01*
X153202380Y-46958154D01*
X153202380Y-46720059D01*
X153250000Y-46624821D01*
X153297619Y-46577202D01*
X153392857Y-46529583D01*
X153488095Y-46529583D01*
X153630952Y-46577202D01*
X154202380Y-47148630D01*
X154202380Y-46529583D01*
%TO.C,D11*%
X147684455Y-52662047D02*
X146818429Y-53162047D01*
X146699382Y-52955851D01*
X146669192Y-52808323D01*
X146704052Y-52678226D01*
X146762721Y-52589367D01*
X146903869Y-52452890D01*
X147027587Y-52381461D01*
X147216353Y-52327463D01*
X147322642Y-52321083D01*
X147452739Y-52355942D01*
X147565407Y-52455851D01*
X147684455Y-52662047D01*
X146922550Y-51342390D02*
X147208264Y-51837261D01*
X147065407Y-51589825D02*
X146199382Y-52089825D01*
X146370719Y-52100875D01*
X146500816Y-52135735D01*
X146589675Y-52194404D01*
X146446360Y-50517603D02*
X146732074Y-51012475D01*
X146589217Y-50765039D02*
X145723191Y-51265039D01*
X145894528Y-51276089D01*
X146024626Y-51310949D01*
X146113484Y-51369618D01*
%TO.C,D10*%
X143697940Y-58466318D02*
X143197940Y-59332343D01*
X142991744Y-59213296D01*
X142891835Y-59100628D01*
X142856976Y-58970530D01*
X142863356Y-58864242D01*
X142917354Y-58675475D01*
X142988783Y-58551757D01*
X143125260Y-58410610D01*
X143214119Y-58351941D01*
X143344216Y-58317081D01*
X143491744Y-58347270D01*
X143697940Y-58466318D01*
X142378282Y-57704413D02*
X142873154Y-57990127D01*
X142625718Y-57847270D02*
X142125718Y-58713296D01*
X142279626Y-58637197D01*
X142409723Y-58602337D01*
X142516011Y-58608717D01*
X141342172Y-58260915D02*
X141259693Y-58213296D01*
X141201024Y-58124437D01*
X141183594Y-58059389D01*
X141189974Y-57953100D01*
X141243973Y-57764334D01*
X141363020Y-57558137D01*
X141499498Y-57416989D01*
X141588356Y-57358320D01*
X141653405Y-57340891D01*
X141759693Y-57347270D01*
X141842172Y-57394889D01*
X141900841Y-57483748D01*
X141918270Y-57548797D01*
X141911891Y-57655085D01*
X141857892Y-57843851D01*
X141738844Y-58050048D01*
X141602367Y-58191196D01*
X141513508Y-58249865D01*
X141448460Y-58267295D01*
X141342172Y-58260915D01*
%TO.C,D9*%
X141741904Y-66868868D02*
X141741904Y-65868868D01*
X141980000Y-65868868D01*
X142122857Y-65916488D01*
X142218095Y-66011726D01*
X142265714Y-66106964D01*
X142313333Y-66297440D01*
X142313333Y-66440297D01*
X142265714Y-66630773D01*
X142218095Y-66726011D01*
X142122857Y-66821249D01*
X141980000Y-66868868D01*
X141741904Y-66868868D01*
X142789523Y-66868868D02*
X142980000Y-66868868D01*
X143075238Y-66821249D01*
X143122857Y-66773630D01*
X143218095Y-66630773D01*
X143265714Y-66440297D01*
X143265714Y-66059345D01*
X143218095Y-65964107D01*
X143170476Y-65916488D01*
X143075238Y-65868868D01*
X142884761Y-65868868D01*
X142789523Y-65916488D01*
X142741904Y-65964107D01*
X142694285Y-66059345D01*
X142694285Y-66297440D01*
X142741904Y-66392678D01*
X142789523Y-66440297D01*
X142884761Y-66487916D01*
X143075238Y-66487916D01*
X143170476Y-66440297D01*
X143218095Y-66392678D01*
X143265714Y-66297440D01*
%TO.C,D8*%
X145717129Y-74281770D02*
X145217129Y-73415744D01*
X145423325Y-73296696D01*
X145570853Y-73266507D01*
X145700950Y-73301367D01*
X145789809Y-73360036D01*
X145926286Y-73501184D01*
X145997715Y-73624901D01*
X146051713Y-73813668D01*
X146058093Y-73919956D01*
X146023234Y-74050054D01*
X145923325Y-74162722D01*
X145717129Y-74281770D01*
X146421158Y-73215469D02*
X146314870Y-73221849D01*
X146249821Y-73204419D01*
X146160962Y-73145750D01*
X146137153Y-73104511D01*
X146130773Y-72998223D01*
X146148203Y-72933174D01*
X146206872Y-72844316D01*
X146371829Y-72749077D01*
X146478117Y-72742698D01*
X146543166Y-72760127D01*
X146632025Y-72818797D01*
X146655834Y-72860036D01*
X146662214Y-72966324D01*
X146644784Y-73031373D01*
X146586115Y-73120231D01*
X146421158Y-73215469D01*
X146362489Y-73304328D01*
X146345059Y-73369376D01*
X146351439Y-73475665D01*
X146446677Y-73640622D01*
X146535535Y-73699291D01*
X146600584Y-73716721D01*
X146706872Y-73710341D01*
X146871829Y-73615103D01*
X146930498Y-73526244D01*
X146947928Y-73461196D01*
X146941548Y-73354908D01*
X146846310Y-73189950D01*
X146757452Y-73131281D01*
X146692403Y-73113851D01*
X146586115Y-73120231D01*
%TO.C,D7*%
X153317186Y-78401739D02*
X152451161Y-77901739D01*
X152570208Y-77695543D01*
X152682876Y-77595634D01*
X152812974Y-77560775D01*
X152919262Y-77567154D01*
X153108029Y-77621153D01*
X153231747Y-77692582D01*
X153372895Y-77829059D01*
X153431564Y-77917918D01*
X153466423Y-78048015D01*
X153436234Y-78195543D01*
X153317186Y-78401739D01*
X152903542Y-77118192D02*
X153236875Y-76540842D01*
X153888615Y-77411996D01*
%TO.C,D6*%
X162122380Y-78214583D02*
X161122380Y-78214583D01*
X161122380Y-77976488D01*
X161170000Y-77833630D01*
X161265238Y-77738392D01*
X161360476Y-77690773D01*
X161550952Y-77643154D01*
X161693809Y-77643154D01*
X161884285Y-77690773D01*
X161979523Y-77738392D01*
X162074761Y-77833630D01*
X162122380Y-77976488D01*
X162122380Y-78214583D01*
X161122380Y-76786011D02*
X161122380Y-76976488D01*
X161170000Y-77071726D01*
X161217619Y-77119345D01*
X161360476Y-77214583D01*
X161550952Y-77262202D01*
X161931904Y-77262202D01*
X162027142Y-77214583D01*
X162074761Y-77166964D01*
X162122380Y-77071726D01*
X162122380Y-76881249D01*
X162074761Y-76786011D01*
X162027142Y-76738392D01*
X161931904Y-76690773D01*
X161693809Y-76690773D01*
X161598571Y-76738392D01*
X161550952Y-76786011D01*
X161503333Y-76881249D01*
X161503333Y-77071726D01*
X161550952Y-77166964D01*
X161598571Y-77214583D01*
X161693809Y-77262202D01*
%TO.C,D5*%
X169575282Y-73989358D02*
X168709256Y-74489358D01*
X168590208Y-74283162D01*
X168560019Y-74135634D01*
X168594879Y-74005537D01*
X168653548Y-73916678D01*
X168794696Y-73780201D01*
X168918413Y-73708772D01*
X169107180Y-73654774D01*
X169213468Y-73648394D01*
X169343566Y-73683253D01*
X169456234Y-73783162D01*
X169575282Y-73989358D01*
X167971161Y-73210940D02*
X168209256Y-73623333D01*
X168645459Y-73426477D01*
X168580410Y-73409047D01*
X168491552Y-73350378D01*
X168372504Y-73144182D01*
X168366124Y-73037893D01*
X168383554Y-72972845D01*
X168442223Y-72883986D01*
X168648420Y-72764939D01*
X168754708Y-72758559D01*
X168819756Y-72775989D01*
X168908615Y-72834658D01*
X169027662Y-73040854D01*
X169034042Y-73147142D01*
X169016612Y-73212191D01*
%TO.C,D4*%
X173695251Y-66639301D02*
X173195251Y-67505326D01*
X172989055Y-67386279D01*
X172889146Y-67273611D01*
X172854287Y-67143513D01*
X172860666Y-67037225D01*
X172914665Y-66848458D01*
X172986094Y-66724740D01*
X173122571Y-66583592D01*
X173211430Y-66524923D01*
X173341527Y-66490064D01*
X173489055Y-66520253D01*
X173695251Y-66639301D01*
X172124739Y-66502365D02*
X172458072Y-65925015D01*
X172140459Y-66951327D02*
X172703798Y-66451785D01*
X172167687Y-66142262D01*
%TO.C,D3*%
X172131904Y-58888868D02*
X172131904Y-57888868D01*
X172370000Y-57888868D01*
X172512857Y-57936488D01*
X172608095Y-58031726D01*
X172655714Y-58126964D01*
X172703333Y-58317440D01*
X172703333Y-58460297D01*
X172655714Y-58650773D01*
X172608095Y-58746011D01*
X172512857Y-58841249D01*
X172370000Y-58888868D01*
X172131904Y-58888868D01*
X173036666Y-57888868D02*
X173655714Y-57888868D01*
X173322380Y-58269821D01*
X173465238Y-58269821D01*
X173560476Y-58317440D01*
X173608095Y-58365059D01*
X173655714Y-58460297D01*
X173655714Y-58698392D01*
X173608095Y-58793630D01*
X173560476Y-58841249D01*
X173465238Y-58888868D01*
X173179523Y-58888868D01*
X173084285Y-58841249D01*
X173036666Y-58793630D01*
%TO.C,D2*%
X168006833Y-52502848D02*
X167506833Y-51636822D01*
X167713029Y-51517774D01*
X167860557Y-51487585D01*
X167990654Y-51522445D01*
X168079513Y-51581114D01*
X168215990Y-51722262D01*
X168287419Y-51845979D01*
X168341417Y-52034746D01*
X168347797Y-52141034D01*
X168312938Y-52271132D01*
X168213029Y-52383800D01*
X168006833Y-52502848D01*
X168379238Y-51243110D02*
X168396668Y-51178061D01*
X168455337Y-51089203D01*
X168661533Y-50970155D01*
X168767821Y-50963776D01*
X168832870Y-50981205D01*
X168921729Y-51039875D01*
X168969348Y-51122353D01*
X168999537Y-51269881D01*
X168790380Y-52050467D01*
X169326491Y-51740943D01*
%TO.C,D1*%
X162028264Y-48692035D02*
X161162239Y-48192035D01*
X161281286Y-47985839D01*
X161393954Y-47885930D01*
X161524052Y-47851071D01*
X161630340Y-47857450D01*
X161819107Y-47911449D01*
X161942825Y-47982878D01*
X162083973Y-48119355D01*
X162142642Y-48208214D01*
X162177501Y-48338311D01*
X162147312Y-48485839D01*
X162028264Y-48692035D01*
X162790169Y-47372377D02*
X162504455Y-47867249D01*
X162647312Y-47619813D02*
X161781286Y-47119813D01*
X161857385Y-47273720D01*
X161892245Y-47403818D01*
X161885865Y-47510106D01*
%TO.C,A1*%
X151685714Y-36361666D02*
X152161904Y-36361666D01*
X151590476Y-36647380D02*
X151923809Y-35647380D01*
X152257142Y-36647380D01*
X153114285Y-36647380D02*
X152542857Y-36647380D01*
X152828571Y-36647380D02*
X152828571Y-35647380D01*
X152733333Y-35790238D01*
X152638095Y-35885476D01*
X152542857Y-35933095D01*
%TO.C,G\u002A\u002A\u002A*%
G36*
X158933789Y-66520611D02*
G01*
X159150685Y-66288299D01*
X159438931Y-66158279D01*
X159814376Y-66129817D01*
X160136393Y-66224200D01*
X160385702Y-66413119D01*
X160543021Y-66668264D01*
X160589069Y-66961324D01*
X160504563Y-67263989D01*
X160341179Y-67483000D01*
X160033729Y-67684020D01*
X159677677Y-67723965D01*
X159278364Y-67602269D01*
X159266422Y-67596436D01*
X158993798Y-67384135D01*
X158850629Y-67107850D01*
X158844853Y-67013538D01*
X159403333Y-67013538D01*
X159465114Y-67214249D01*
X159613726Y-67317167D01*
X159794076Y-67316863D01*
X159951066Y-67207905D01*
X160015121Y-67073844D01*
X160019114Y-66825444D01*
X159915240Y-66632411D01*
X159732922Y-66545964D01*
X159711453Y-66545154D01*
X159522503Y-66603026D01*
X159423986Y-66786931D01*
X159403333Y-67013538D01*
X158844853Y-67013538D01*
X158832198Y-66806902D01*
X158933789Y-66520611D01*
G37*
G36*
X155847143Y-65557186D02*
G01*
X155986099Y-65666560D01*
X156139377Y-65895198D01*
X156140097Y-65896426D01*
X156266049Y-66138138D01*
X156343539Y-66338462D01*
X156355333Y-66404426D01*
X156298835Y-66524157D01*
X156157896Y-66527904D01*
X156006825Y-66439321D01*
X155901339Y-66321488D01*
X155756001Y-66125691D01*
X155605238Y-65903086D01*
X155483478Y-65704828D01*
X155425150Y-65582075D01*
X155424000Y-65573303D01*
X155497629Y-65542111D01*
X155674430Y-65529154D01*
X155847143Y-65557186D01*
G37*
G36*
X155066361Y-67018649D02*
G01*
X155114968Y-66864697D01*
X155045878Y-66790999D01*
X154952951Y-66763036D01*
X154781207Y-66657249D01*
X154746666Y-66533678D01*
X154757524Y-66440887D01*
X154814799Y-66393658D01*
X154955540Y-66384339D01*
X155216799Y-66405284D01*
X155318166Y-66415694D01*
X155619321Y-66456687D01*
X155854303Y-66506294D01*
X155970100Y-66552557D01*
X156120975Y-66622235D01*
X156188174Y-66629821D01*
X156370394Y-66701701D01*
X156546930Y-66877756D01*
X156668234Y-67098609D01*
X156694000Y-67235989D01*
X156632595Y-67456663D01*
X156525524Y-67602711D01*
X156316133Y-67709701D01*
X156012151Y-67775043D01*
X155684929Y-67790814D01*
X155405820Y-67749086D01*
X155359811Y-67732197D01*
X155141947Y-67560047D01*
X155032376Y-67309323D01*
X155032492Y-67308039D01*
X155561465Y-67308039D01*
X155643521Y-67374205D01*
X155645711Y-67375434D01*
X155844299Y-67419947D01*
X156048032Y-67378138D01*
X156150488Y-67296117D01*
X156135857Y-67184577D01*
X156036794Y-67017308D01*
X156029462Y-67007857D01*
X155861920Y-66794862D01*
X155683312Y-67045693D01*
X155572696Y-67216360D01*
X155561465Y-67308039D01*
X155032492Y-67308039D01*
X155056542Y-67041894D01*
X155066361Y-67018649D01*
G37*
G36*
X159006366Y-56343776D02*
G01*
X159363646Y-56350376D01*
X159624816Y-56368218D01*
X159826487Y-56402902D01*
X160005271Y-56460029D01*
X160197779Y-56545196D01*
X160361289Y-56624979D01*
X160685728Y-56799929D01*
X160942522Y-56983625D01*
X161138151Y-57196874D01*
X161279097Y-57460482D01*
X161371839Y-57795258D01*
X161422860Y-58222006D01*
X161438639Y-58761535D01*
X161425657Y-59434651D01*
X161404007Y-59972686D01*
X161411745Y-60117095D01*
X161477935Y-60207608D01*
X161642293Y-60277036D01*
X161837442Y-60330770D01*
X162311239Y-60484126D01*
X162718341Y-60674984D01*
X163013117Y-60881013D01*
X163061937Y-60930077D01*
X163270759Y-61256100D01*
X163418066Y-61674202D01*
X163478332Y-62110996D01*
X163478571Y-62127876D01*
X163483282Y-62698367D01*
X163484250Y-63126931D01*
X163478940Y-63440971D01*
X163464816Y-63667889D01*
X163439341Y-63835088D01*
X163399981Y-63969969D01*
X163344198Y-64099936D01*
X163284850Y-64221198D01*
X162988107Y-64640376D01*
X162567518Y-64980259D01*
X162060402Y-65213513D01*
X161855877Y-65267843D01*
X161469950Y-65321626D01*
X160981829Y-65348191D01*
X160448903Y-65348476D01*
X159928560Y-65323419D01*
X159478192Y-65273959D01*
X159234000Y-65224975D01*
X158548563Y-64984659D01*
X158012301Y-64666708D01*
X157622992Y-64269337D01*
X157378416Y-63790762D01*
X157354950Y-63714924D01*
X157291126Y-63497865D01*
X157248901Y-63364631D01*
X157242272Y-63348083D01*
X157163009Y-63362342D01*
X156977219Y-63423481D01*
X156855373Y-63468549D01*
X156507829Y-63555684D01*
X156041139Y-63609241D01*
X155502029Y-63629682D01*
X154937231Y-63617472D01*
X154393472Y-63573077D01*
X153917481Y-63496960D01*
X153686375Y-63437052D01*
X153190336Y-63231552D01*
X152757544Y-62957777D01*
X152424747Y-62643283D01*
X152244170Y-62355654D01*
X152127818Y-61950082D01*
X152068285Y-61461069D01*
X152062853Y-60934288D01*
X152108806Y-60415413D01*
X152203426Y-59950114D01*
X152343997Y-59584065D01*
X152415739Y-59471363D01*
X152759721Y-59148813D01*
X153245393Y-58885389D01*
X153853059Y-58688939D01*
X154563025Y-58567310D01*
X154722646Y-58552061D01*
X155040748Y-58516688D01*
X155225466Y-58457654D01*
X155312684Y-58346623D01*
X155338287Y-58155262D01*
X155339333Y-58065120D01*
X155411713Y-57615945D01*
X155635070Y-57219419D01*
X155946470Y-56913864D01*
X156244453Y-56706965D01*
X156570095Y-56553631D01*
X156953144Y-56447249D01*
X157423348Y-56381211D01*
X158010458Y-56348905D01*
X158516363Y-56342821D01*
X159006366Y-56343776D01*
G37*
D11*
%TO.C,S2*%
X183002600Y-59675400D02*
X183663000Y-59015000D01*
X181300800Y-59675400D02*
X183002600Y-59675400D01*
D12*
X186250000Y-63500000D02*
X186250000Y-56000000D01*
D11*
X186152200Y-59650000D02*
X184475800Y-59650000D01*
D12*
X181250000Y-63500000D02*
X181250000Y-56000000D01*
D11*
%TO.C,S1*%
X129252600Y-62155400D02*
X129913000Y-61495000D01*
X127550800Y-62155400D02*
X129252600Y-62155400D01*
D12*
X132500000Y-65980000D02*
X132500000Y-58480000D01*
D11*
X132402200Y-62130000D02*
X130725800Y-62130000D01*
D12*
X127500000Y-65980000D02*
X127500000Y-58480000D01*
D13*
%TO.C,R14*%
X132810000Y-52805000D02*
X132810000Y-52475000D01*
X126270000Y-50065000D02*
X132810000Y-50065000D01*
X126270000Y-52805000D02*
X132810000Y-52805000D01*
X126270000Y-52475000D02*
X126270000Y-52805000D01*
X126270000Y-50395000D02*
X126270000Y-50065000D01*
X132810000Y-50065000D02*
X132810000Y-50395000D01*
%TO.C,R13*%
X132810000Y-43280000D02*
X132810000Y-42950000D01*
X126270000Y-40540000D02*
X132810000Y-40540000D01*
X126270000Y-43280000D02*
X132810000Y-43280000D01*
X126270000Y-42950000D02*
X126270000Y-43280000D01*
X126270000Y-40870000D02*
X126270000Y-40540000D01*
X132810000Y-40540000D02*
X132810000Y-40870000D01*
%TO.C,R12*%
X132810000Y-49630000D02*
X132810000Y-49300000D01*
X126270000Y-46890000D02*
X132810000Y-46890000D01*
X126270000Y-49630000D02*
X132810000Y-49630000D01*
X126270000Y-49300000D02*
X126270000Y-49630000D01*
X126270000Y-47220000D02*
X126270000Y-46890000D01*
X132810000Y-46890000D02*
X132810000Y-47220000D01*
%TO.C,R11*%
X186785000Y-48360000D02*
X186785000Y-48030000D01*
X180245000Y-45620000D02*
X186785000Y-45620000D01*
X180245000Y-48360000D02*
X186785000Y-48360000D01*
X180245000Y-48030000D02*
X180245000Y-48360000D01*
X180245000Y-45950000D02*
X180245000Y-45620000D01*
X186785000Y-45620000D02*
X186785000Y-45950000D01*
%TO.C,R10*%
X133445000Y-83285000D02*
X133445000Y-82955000D01*
X126905000Y-80545000D02*
X133445000Y-80545000D01*
X126905000Y-83285000D02*
X133445000Y-83285000D01*
X126905000Y-82955000D02*
X126905000Y-83285000D01*
X126905000Y-80875000D02*
X126905000Y-80545000D01*
X133445000Y-80545000D02*
X133445000Y-80875000D01*
%TO.C,R9*%
X133445000Y-86460000D02*
X133445000Y-86130000D01*
X126905000Y-83720000D02*
X133445000Y-83720000D01*
X126905000Y-86460000D02*
X133445000Y-86460000D01*
X126905000Y-86130000D02*
X126905000Y-86460000D01*
X126905000Y-84050000D02*
X126905000Y-83720000D01*
X133445000Y-83720000D02*
X133445000Y-84050000D01*
%TO.C,R8*%
X186770000Y-82650000D02*
X186770000Y-82320000D01*
X180230000Y-79910000D02*
X186770000Y-79910000D01*
X180230000Y-82650000D02*
X186770000Y-82650000D01*
X180230000Y-82320000D02*
X180230000Y-82650000D01*
X180230000Y-80240000D02*
X180230000Y-79910000D01*
X186770000Y-79910000D02*
X186770000Y-80240000D01*
%TO.C,R7*%
X186785000Y-76300000D02*
X186785000Y-75970000D01*
X180245000Y-73560000D02*
X186785000Y-73560000D01*
X180245000Y-76300000D02*
X186785000Y-76300000D01*
X180245000Y-75970000D02*
X180245000Y-76300000D01*
X180245000Y-73890000D02*
X180245000Y-73560000D01*
X186785000Y-73560000D02*
X186785000Y-73890000D01*
%TO.C,R6*%
X186785000Y-42445000D02*
X186785000Y-42775000D01*
X180245000Y-42775000D02*
X180245000Y-42445000D01*
X180245000Y-44855000D02*
X180245000Y-45185000D01*
X180245000Y-45185000D02*
X186785000Y-45185000D01*
X180245000Y-42445000D02*
X186785000Y-42445000D01*
X186785000Y-45185000D02*
X186785000Y-44855000D01*
%TO.C,R5*%
X132810000Y-46455000D02*
X132810000Y-46125000D01*
X126270000Y-43715000D02*
X132810000Y-43715000D01*
X126270000Y-46455000D02*
X132810000Y-46455000D01*
X126270000Y-46125000D02*
X126270000Y-46455000D01*
X126270000Y-44045000D02*
X126270000Y-43715000D01*
X132810000Y-43715000D02*
X132810000Y-44045000D01*
%TO.C,R4*%
X133445000Y-89635000D02*
X133445000Y-89305000D01*
X126905000Y-86895000D02*
X133445000Y-86895000D01*
X126905000Y-89635000D02*
X133445000Y-89635000D01*
X126905000Y-89305000D02*
X126905000Y-89635000D01*
X126905000Y-87225000D02*
X126905000Y-86895000D01*
X133445000Y-86895000D02*
X133445000Y-87225000D01*
%TO.C,R3*%
X186770000Y-85825000D02*
X186770000Y-85495000D01*
X180230000Y-83085000D02*
X186770000Y-83085000D01*
X180230000Y-85825000D02*
X186770000Y-85825000D01*
X180230000Y-85495000D02*
X180230000Y-85825000D01*
X180230000Y-83415000D02*
X180230000Y-83085000D01*
X186770000Y-83085000D02*
X186770000Y-83415000D01*
%TO.C,R2*%
X186785000Y-76735000D02*
X186785000Y-77065000D01*
X180245000Y-77065000D02*
X180245000Y-76735000D01*
X180245000Y-79145000D02*
X180245000Y-79475000D01*
X180245000Y-79475000D02*
X186785000Y-79475000D01*
X180245000Y-76735000D02*
X186785000Y-76735000D01*
X186785000Y-79475000D02*
X186785000Y-79145000D01*
%TO.C,R1*%
X133520000Y-79605000D02*
X133520000Y-79275000D01*
X126980000Y-76865000D02*
X133520000Y-76865000D01*
X126980000Y-79605000D02*
X133520000Y-79605000D01*
X126980000Y-79275000D02*
X126980000Y-79605000D01*
X126980000Y-77195000D02*
X126980000Y-76865000D01*
X133520000Y-76865000D02*
X133520000Y-77195000D01*
%TO.C,D12*%
X156165000Y-50351488D02*
X159255000Y-50351488D01*
X159254830Y-50351488D02*
G75*
G03*
X157709538Y-44801488I-1544830J2560000D01*
G01*
X157710462Y-44801488D02*
G75*
G03*
X156165170Y-50351488I-462J-2990000D01*
G01*
X160210000Y-47791488D02*
G75*
G03*
X160210000Y-47791488I-2500000J0D01*
G01*
%TO.C,D11*%
X150056991Y-52846161D02*
X152733009Y-51301161D01*
X152732862Y-51301246D02*
G75*
G03*
X148619600Y-47267451I-2617862J1444610D01*
G01*
X148620400Y-47266989D02*
G75*
G03*
X150057138Y-52846076I1494600J-2589647D01*
G01*
X152615000Y-49856636D02*
G75*
G03*
X152615000Y-49856636I-2500000J0D01*
G01*
%TO.C,D10*%
X145844673Y-57439497D02*
X147389673Y-54763479D01*
X147389588Y-54763626D02*
G75*
G03*
X141810501Y-53326888I-2989440J-57862D01*
G01*
X141810963Y-53326088D02*
G75*
G03*
X145844758Y-57439350I2589185J-1495400D01*
G01*
X146900148Y-54821488D02*
G75*
G03*
X146900148Y-54821488I-2500000J0D01*
G01*
%TO.C,D9*%
X145040000Y-64001488D02*
X145040000Y-60911488D01*
X145040000Y-60911658D02*
G75*
G03*
X139490000Y-62456950I-2560000J-1544830D01*
G01*
X139490000Y-62456026D02*
G75*
G03*
X145040000Y-64001318I2990000J-462D01*
G01*
X144980000Y-62456488D02*
G75*
G03*
X144980000Y-62456488I-2500000J0D01*
G01*
%TO.C,D8*%
X147139673Y-70149497D02*
X145594673Y-67473479D01*
X145594758Y-67473626D02*
G75*
G03*
X141560963Y-71586888I-1444610J-2617862D01*
G01*
X141560501Y-71586088D02*
G75*
G03*
X147139588Y-70149350I2589647J1494600D01*
G01*
X146650148Y-70091488D02*
G75*
G03*
X146650148Y-70091488I-2500000J0D01*
G01*
%TO.C,D7*%
X152483009Y-74111815D02*
X149806991Y-72566815D01*
X149807138Y-72566900D02*
G75*
G03*
X148370400Y-78145987I57862J-2989440D01*
G01*
X148369600Y-78145525D02*
G75*
G03*
X152482862Y-74111730I1495400J2589185D01*
G01*
X152365000Y-75556340D02*
G75*
G03*
X152365000Y-75556340I-2500000J0D01*
G01*
%TO.C,D6*%
X159255000Y-74916488D02*
X156165000Y-74916488D01*
X156165170Y-74916488D02*
G75*
G03*
X157710462Y-80466488I1544830J-2560000D01*
G01*
X157709538Y-80466488D02*
G75*
G03*
X159254830Y-74916488I462J2990000D01*
G01*
X160210000Y-77476488D02*
G75*
G03*
X160210000Y-77476488I-2500000J0D01*
G01*
%TO.C,D5*%
X165443009Y-72566815D02*
X162766991Y-74111815D01*
X162767138Y-74111730D02*
G75*
G03*
X166880400Y-78145525I2617862J-1444610D01*
G01*
X166879600Y-78145987D02*
G75*
G03*
X165442862Y-72566900I-1494600J2589647D01*
G01*
X167885000Y-75556340D02*
G75*
G03*
X167885000Y-75556340I-2500000J0D01*
G01*
%TO.C,D4*%
X169405327Y-67473479D02*
X167860327Y-70149497D01*
X167860412Y-70149350D02*
G75*
G03*
X173439499Y-71586088I2989440J57862D01*
G01*
X173439037Y-71586888D02*
G75*
G03*
X169405242Y-67473626I-2589185J1495400D01*
G01*
X173349852Y-70091488D02*
G75*
G03*
X173349852Y-70091488I-2500000J0D01*
G01*
%TO.C,D3*%
X170310000Y-60851488D02*
X170310000Y-63941488D01*
X170310000Y-63941318D02*
G75*
G03*
X175860000Y-62396026I2560000J1544830D01*
G01*
X175860000Y-62396950D02*
G75*
G03*
X170310000Y-60851658I-2990000J462D01*
G01*
X175370000Y-62396488D02*
G75*
G03*
X175370000Y-62396488I-2500000J0D01*
G01*
%TO.C,D2*%
X167410327Y-55113479D02*
X168955327Y-57789497D01*
X168955242Y-57789350D02*
G75*
G03*
X172989037Y-53676088I1444610J2617862D01*
G01*
X172989499Y-53676888D02*
G75*
G03*
X167410412Y-55113626I-2589647J-1494600D01*
G01*
X172899852Y-55171488D02*
G75*
G03*
X172899852Y-55171488I-2500000J0D01*
G01*
%TO.C,D1*%
X167935000Y-49806636D02*
G75*
G03*
X167935000Y-49806636I-2500000J0D01*
G01*
X166930400Y-47217451D02*
G75*
G03*
X162817138Y-51251246I-1495400J-2589185D01*
G01*
X165492862Y-52796076D02*
G75*
G03*
X166929600Y-47216989I-57862J2989440D01*
G01*
X162816991Y-51251161D02*
X165493009Y-52796161D01*
%TO.C,A1*%
X191900000Y-75315000D02*
X191900000Y-42545000D01*
X189360000Y-37335000D02*
X123060000Y-37335000D01*
X121160000Y-40515000D02*
X121160000Y-49655000D01*
X121160000Y-49655000D02*
X123060000Y-49655000D01*
X123060000Y-40515000D02*
X121160000Y-40515000D01*
X189360000Y-89285000D02*
X189360000Y-77855000D01*
X123060000Y-90935000D02*
X187710000Y-90935000D01*
X191900000Y-42545000D02*
X189360000Y-40005000D01*
X187710000Y-90935000D02*
X189360000Y-89285000D01*
X116710000Y-69725000D02*
X116710000Y-81405000D01*
X123060000Y-69725000D02*
X116710000Y-69725000D01*
X123060000Y-81405000D02*
X123060000Y-90935000D01*
X123060000Y-37335000D02*
X123060000Y-40515000D01*
X116710000Y-81405000D02*
X123060000Y-81405000D01*
X189360000Y-40005000D02*
X189360000Y-37335000D01*
X123060000Y-49655000D02*
X123060000Y-69725000D01*
X189360000Y-77855000D02*
X191900000Y-75315000D01*
%TD*%
M02*
