%TF.GenerationSoftware,KiCad,Pcbnew,(6.0.7)*%
%TF.CreationDate,2022-08-22T17:27:46+09:00*%
%TF.ProjectId,LED_RL_SD,4c45445f-524c-45f5-9344-2e6b69636164,rev?*%
%TF.SameCoordinates,Original*%
%TF.FileFunction,Soldermask,Top*%
%TF.FilePolarity,Negative*%
%FSLAX46Y46*%
G04 Gerber Fmt 4.6, Leading zero omitted, Abs format (unit mm)*
G04 Created by KiCad (PCBNEW (6.0.7)) date 2022-08-22 17:27:46*
%MOMM*%
%LPD*%
G01*
G04 APERTURE LIST*
G04 Aperture macros list*
%AMRotRect*
0 Rectangle, with rotation*
0 The origin of the aperture is its center*
0 $1 length*
0 $2 width*
0 $3 Rotation angle, in degrees counterclockwise*
0 Add horizontal line*
21,1,$1,$2,0,0,$3*%
G04 Aperture macros list end*
%ADD10R,2.500000X2.500000*%
%ADD11C,2.500000*%
%ADD12C,1.600000*%
%ADD13O,1.600000X1.600000*%
%ADD14R,1.800000X1.800000*%
%ADD15C,1.800000*%
%ADD16RotRect,1.800000X1.800000X120.000000*%
%ADD17RotRect,1.800000X1.800000X150.000000*%
%ADD18RotRect,1.800000X1.800000X210.000000*%
%ADD19RotRect,1.800000X1.800000X240.000000*%
%ADD20RotRect,1.800000X1.800000X300.000000*%
%ADD21RotRect,1.800000X1.800000X330.000000*%
%ADD22RotRect,1.800000X1.800000X30.000000*%
%ADD23RotRect,1.800000X1.800000X60.000000*%
%ADD24R,1.600000X1.600000*%
G04 APERTURE END LIST*
D10*
%TO.C,S2*%
X181250000Y-66000000D03*
D11*
X186250000Y-66000000D03*
X181250000Y-53500000D03*
X186250000Y-53500000D03*
%TD*%
D10*
%TO.C,S1*%
X127500000Y-68480000D03*
D11*
X132500000Y-68480000D03*
X127500000Y-55980000D03*
X132500000Y-55980000D03*
%TD*%
D12*
%TO.C,R14*%
X125730000Y-51435000D03*
D13*
X133350000Y-51435000D03*
%TD*%
D12*
%TO.C,R13*%
X125730000Y-41910000D03*
D13*
X133350000Y-41910000D03*
%TD*%
D12*
%TO.C,R12*%
X125730000Y-48260000D03*
D13*
X133350000Y-48260000D03*
%TD*%
D12*
%TO.C,R11*%
X179705000Y-46990000D03*
D13*
X187325000Y-46990000D03*
%TD*%
D12*
%TO.C,R10*%
X126365000Y-81915000D03*
D13*
X133985000Y-81915000D03*
%TD*%
D12*
%TO.C,R9*%
X126365000Y-85090000D03*
D13*
X133985000Y-85090000D03*
%TD*%
D12*
%TO.C,R8*%
X179690000Y-81280000D03*
D13*
X187310000Y-81280000D03*
%TD*%
D12*
%TO.C,R7*%
X179705000Y-74930000D03*
D13*
X187325000Y-74930000D03*
%TD*%
%TO.C,R6*%
X187325000Y-43815000D03*
D12*
X179705000Y-43815000D03*
%TD*%
%TO.C,R5*%
X125730000Y-45085000D03*
D13*
X133350000Y-45085000D03*
%TD*%
D12*
%TO.C,R4*%
X126365000Y-88265000D03*
D13*
X133985000Y-88265000D03*
%TD*%
D12*
%TO.C,R3*%
X179690000Y-84455000D03*
D13*
X187310000Y-84455000D03*
%TD*%
%TO.C,R2*%
X187325000Y-78105000D03*
D12*
X179705000Y-78105000D03*
%TD*%
%TO.C,R1*%
X126440000Y-78235000D03*
D13*
X134060000Y-78235000D03*
%TD*%
D14*
%TO.C,D12*%
X157710000Y-49061488D03*
D15*
X157710000Y-46521488D03*
%TD*%
D16*
%TO.C,D11*%
X150750000Y-50956488D03*
D15*
X149480000Y-48756783D03*
%TD*%
D17*
%TO.C,D10*%
X145500000Y-55456488D03*
D15*
X143300295Y-54186488D03*
%TD*%
D14*
%TO.C,D9*%
X143750000Y-62456488D03*
D15*
X141210000Y-62456488D03*
%TD*%
D18*
%TO.C,D8*%
X145250000Y-69456488D03*
D15*
X143050295Y-70726488D03*
%TD*%
D19*
%TO.C,D7*%
X150500000Y-74456488D03*
D15*
X149230000Y-76656193D03*
%TD*%
D14*
%TO.C,D6*%
X157710000Y-76206488D03*
D15*
X157710000Y-78746488D03*
%TD*%
D20*
%TO.C,D5*%
X164750000Y-74456488D03*
D15*
X166020000Y-76656193D03*
%TD*%
D21*
%TO.C,D4*%
X169750000Y-69456488D03*
D15*
X171949705Y-70726488D03*
%TD*%
D14*
%TO.C,D3*%
X171600000Y-62396488D03*
D15*
X174140000Y-62396488D03*
%TD*%
D22*
%TO.C,D2*%
X169300000Y-55806488D03*
D15*
X171499705Y-54536488D03*
%TD*%
%TO.C,D1*%
X166070000Y-48706783D03*
D23*
X164800000Y-50906488D03*
%TD*%
D24*
%TO.C,A1*%
X151130000Y-40005000D03*
D13*
X153670000Y-40005000D03*
X156210000Y-40005000D03*
X158750000Y-40005000D03*
X161290000Y-40005000D03*
X163830000Y-40005000D03*
X166370000Y-40005000D03*
X168910000Y-40005000D03*
X173990000Y-40005000D03*
X176530000Y-40005000D03*
X179070000Y-40005000D03*
X181610000Y-40005000D03*
X184150000Y-40005000D03*
X186690000Y-40005000D03*
X186690000Y-88265000D03*
X184150000Y-88265000D03*
X181610000Y-88265000D03*
X179070000Y-88265000D03*
X176530000Y-88265000D03*
X173990000Y-88265000D03*
X171450000Y-88265000D03*
X168910000Y-88265000D03*
X164850000Y-88265000D03*
X162310000Y-88265000D03*
X159770000Y-88265000D03*
X157230000Y-88265000D03*
X154690000Y-88265000D03*
X152150000Y-88265000D03*
X149610000Y-88265000D03*
X147070000Y-88265000D03*
X144530000Y-88265000D03*
X141990000Y-88265000D03*
%TD*%
M02*
